<svg width="385" height="341" viewBox="0 0 385 341" fill="none" xmlns="http://www.w3.org/2000/svg">
<g id="undraw_deliveries_131a 1">
<path id="Vector" d="M184.681 341C286.677 341 369.362 336.444 369.362 330.823C369.362 325.203 286.677 320.646 184.681 320.646C82.6845 320.646 0 325.203 0 330.823C0 336.444 82.6845 341 184.681 341Z" fill="#3F3D56"/>
<path id="Vector_2" d="M174.837 321.761L121.318 334.845L120.101 334.7L73.0696 329.03V257.791L130.643 246.161L172.404 251.976L172.416 252.291L172.42 252.446L174.837 321.761Z" fill="#EB99EC"/>
<path id="Vector_3" opacity="0.1" d="M174.837 321.761L121.318 334.845L120.101 334.7V261.668L172.416 252.291L174.837 321.761Z" fill="black"/>
<path id="Vector_4" opacity="0.05" d="M172.42 252.446L172.404 252.461L120.101 261.668L73.0696 257.791L130.643 246.161L172.404 251.976L172.416 252.291L172.42 252.446Z" fill="black"/>
<path id="Vector_5" d="M233.626 324.668L180.108 337.753L178.891 337.608L131.859 331.938V260.699L189.433 249.068L231.194 254.884L231.206 255.199L231.21 255.354L233.626 324.668Z" fill="#3F3D56"/>
<path id="Vector_6" opacity="0.1" d="M233.626 324.668L180.108 337.753L178.891 337.608V264.576L231.206 255.199L233.626 324.668Z" fill="black"/>
<path id="Vector_7" opacity="0.05" d="M231.21 255.354L231.194 255.368L178.891 264.576L131.859 260.699L189.433 249.068L231.194 254.884L231.206 255.199L231.21 255.354Z" fill="black"/>
<path id="Vector_8" d="M196.731 254.884L143.212 267.968L141.996 267.823L94.9637 262.153V190.914L152.537 179.284L194.298 185.099L194.31 185.414L194.314 185.569L196.731 254.884Z" fill="#3F3D56"/>
<path id="Vector_9" opacity="0.1" d="M196.731 254.884L143.212 267.968L141.996 267.823V194.791L194.31 185.414L196.731 254.884Z" fill="black"/>
<path id="Vector_10" opacity="0.05" d="M194.314 185.569L194.298 185.584L141.996 194.791L94.9637 190.914L152.537 179.284L194.298 185.099L194.31 185.414L194.314 185.569Z" fill="black"/>
<path id="Vector_11" d="M227.139 257.869L199.208 264.702L198.572 264.625L174.026 261.664V224.484L204.073 218.412L225.87 221.45L225.878 221.615V221.692L227.139 257.869Z" fill="#3F3D56"/>
<path id="Vector_12" opacity="0.1" d="M227.139 257.869L199.208 264.702L198.572 264.625V226.509L225.878 221.615L227.139 257.869Z" fill="black"/>
<path id="Vector_13" opacity="0.05" d="M225.878 221.692L225.87 221.702L198.572 226.509L174.026 224.484L204.073 218.412L225.87 221.45L225.878 221.615V221.692Z" fill="black"/>
<path id="Vector_14" d="M152.132 185.661L124.2 192.489L123.564 192.417L99.0182 189.456V152.276L129.066 146.204L150.863 149.242L150.871 149.407V149.485L152.132 185.661Z" fill="#3F3D56"/>
<path id="Vector_15" opacity="0.1" d="M152.132 185.661L124.2 192.489L123.564 192.417V154.302L150.871 149.407L152.132 185.661Z" fill="black"/>
<path id="Vector_16" opacity="0.05" d="M150.871 149.485L150.863 149.494L123.564 154.302L99.0182 152.276L129.066 146.204L150.863 149.242L150.871 149.407V149.485Z" fill="black"/>
<path id="Vector_17" d="M201.191 184.207L173.26 191.036L172.623 190.963L148.077 188.002V150.822L178.125 144.75L199.922 147.788L199.93 147.953V148.031L201.191 184.207Z" fill="#EB99EC"/>
<path id="Vector_18" opacity="0.1" d="M201.191 184.207L173.259 191.036L172.623 190.963V152.848L199.93 147.953L201.191 184.207Z" fill="black"/>
<path id="Vector_19" opacity="0.05" d="M199.93 148.031L199.922 148.04L172.623 152.848L148.077 150.822L178.125 144.75L199.922 147.788L199.93 147.953V148.031Z" fill="black"/>
<path id="Vector_20" d="M215.787 146.892L187.856 153.72L187.219 153.647L162.673 150.686V113.507L192.721 107.435L214.518 110.473L214.526 110.638V110.715L215.787 146.892Z" fill="#3F3D56"/>
<path id="Vector_21" opacity="0.1" d="M215.787 146.892L187.856 153.72L187.219 153.647V115.532L214.526 110.638L215.787 146.892Z" fill="black"/>
<path id="Vector_22" opacity="0.05" d="M214.526 110.715L214.518 110.725L187.219 115.532L162.673 113.507L192.721 107.435L214.518 110.473L214.526 110.638V110.715Z" fill="black"/>
<path id="Vector_23" d="M234.81 70.8848C234.514 74.0348 232.503 76.5742 231.757 79.6079C230.638 84.1875 232.568 89.1063 235.228 92.6925C237.372 95.5419 239.967 97.8546 242.863 99.4967C245.76 101.139 248.9 102.078 252.103 102.259C253.043 102.356 253.991 102.232 254.892 101.895C255.695 101.505 256.418 100.913 257.013 100.16C259.007 97.7616 260.082 94.4419 260.508 91.0932C260.933 87.7445 260.771 84.3377 260.605 80.9599C260.605 80.2609 260.497 79.5678 260.289 78.9148C260.017 78.2939 259.643 77.7449 259.19 77.3011C257.752 75.7215 256.167 74.3443 254.466 73.1964C253.737 72.7118 252.954 72.2271 252.488 71.3888C252.168 70.7211 251.96 69.9853 251.876 69.2225L251.353 66.0434C251.26 65.1268 250.998 64.2462 250.586 63.4653C249.666 61.9824 247.902 61.7788 246.358 61.7061L240.681 61.4396C238.918 61.3572 236.598 60.7514 234.875 61.1682C233.253 61.5511 233.801 63.3247 234.093 64.9337C234.515 66.8796 234.756 68.8755 234.81 70.8848Z" fill="#FFC0C6"/>
<path id="Vector_24" opacity="0.1" d="M234.81 70.8848C234.514 74.0348 232.503 76.5742 231.757 79.6079C230.638 84.1875 232.568 89.1063 235.228 92.6925C237.372 95.5419 239.967 97.8546 242.863 99.4967C245.76 101.139 248.9 102.078 252.103 102.259C253.043 102.356 253.991 102.232 254.892 101.895C255.695 101.505 256.418 100.913 257.013 100.16C259.007 97.7616 260.082 94.4419 260.508 91.0932C260.933 87.7445 260.771 84.3377 260.605 80.9599C260.605 80.2609 260.497 79.5678 260.289 78.9148C260.017 78.2939 259.643 77.7449 259.19 77.3011C257.752 75.7215 256.167 74.3443 254.466 73.1964C253.737 72.7118 252.954 72.2271 252.488 71.3888C252.168 70.7211 251.96 69.9853 251.876 69.2225L251.353 66.0434C251.26 65.1268 250.998 64.2462 250.586 63.4653C249.666 61.9824 247.902 61.7788 246.358 61.7061L240.681 61.4396C238.918 61.3572 236.598 60.7514 234.875 61.1682C233.253 61.5511 233.801 63.3247 234.093 64.9337C234.515 66.8796 234.756 68.8755 234.81 70.8848Z" fill="black"/>
<path id="Vector_25" d="M270.859 212.761L268.45 244.319C267.822 252.596 267.181 260.908 265.949 269.078C265.543 271.894 265.024 274.695 264.432 277.472C262.786 285.182 260.398 292.718 259.628 300.622C259.603 300.85 259.583 301.106 259.563 301.315C259.405 303.059 259.267 304.823 258.752 306.452C258.347 307.658 257.775 308.758 257.357 309.951C256.546 312.335 256.417 314.971 256.315 317.554C253.393 315.582 250.192 314.268 246.872 313.677C245.251 313.391 243.487 313.193 242.412 311.739C241.196 310.159 241.338 307.741 241.541 305.618C242.179 299.027 242.814 292.44 243.446 285.856C243.657 283.022 244.064 280.215 244.663 277.462C244.882 276.546 245.145 275.645 245.413 274.743C245.782 273.503 246.155 272.262 246.435 270.988C246.823 268.94 247.091 266.862 247.237 264.77C247.89 258.14 248.677 251.525 249.366 244.901L249.402 244.552C250.436 234.51 251.223 224.421 250.996 214.307C250.963 212.809 250.911 211.312 250.83 209.81C250.716 207.634 250.55 206.48 252.046 205.119C253.712 203.616 255.906 202.565 257.811 201.581C258.837 201.048 270.133 196.25 270.38 197.307C270.905 199.551 271.177 201.868 271.191 204.198C271.214 207.057 271.103 209.916 270.859 212.761Z" fill="#605D82"/>
<path id="Vector_26" opacity="0.1" d="M265.949 269.078C265.543 271.894 265.024 274.695 264.432 277.472C262.786 285.182 260.398 292.718 259.628 300.622C259.603 300.85 259.583 301.106 259.563 301.315C254.527 292.718 250.286 283.471 245.372 274.782C245.741 273.541 246.114 272.301 246.394 271.026C246.797 268.967 247.079 266.876 247.237 264.77C247.89 258.14 248.677 251.525 249.366 244.901L249.402 244.552C249.687 245.958 250.095 247.324 250.619 248.627C253.919 256.643 261.76 260.694 265.596 268.366C265.723 268.605 265.841 268.842 265.949 269.078Z" fill="black"/>
<path id="Vector_27" d="M225.088 198.605C225.254 205.031 226.114 211.404 226.973 217.752L228.745 230.837C229.714 238.009 230.728 245.322 233.566 251.743C235.69 256.551 238.747 260.651 241.516 264.959C248.32 275.553 253.433 287.557 259.883 298.46C261.76 301.63 264.44 305.061 267.639 304.397C269.74 303.966 271.264 301.872 272.91 300.263C274.856 298.363 277.2 296.973 278.732 294.588C280.265 292.204 280.565 288.25 278.489 286.553C277.78 285.977 276.916 285.759 276.113 285.39C272.898 283.936 270.814 280.176 269.492 276.376C268.171 272.577 267.364 268.501 265.6 264.969C261.764 257.297 253.919 253.246 250.619 245.225C248.77 240.738 248.592 235.533 248.454 230.556L248.093 217.806C248.052 216.41 248.024 214.961 248.498 213.687C249.759 210.294 253.57 209.974 256.66 209.543C260.164 209.054 263.558 207.775 266.662 205.773C268.442 204.624 270.177 203.161 271.122 201.028C271.99 199.09 272.107 196.807 272.209 194.607L273.279 171.496C273.372 169.509 273.453 167.449 272.874 165.588C271.402 160.907 266.456 159.376 262.275 159.599C254.499 160.015 247.322 164.013 239.976 166.718C238.155 167.386 236.327 167.987 234.45 168.438C232.828 168.83 230.801 168.671 229.244 169.301C226.454 170.425 226.523 177.723 226.13 180.747C225.318 186.648 224.969 192.627 225.088 198.605Z" fill="#605D82"/>
<path id="Vector_28" d="M266.585 305.376C267.27 306.205 267.493 307.416 267.672 308.56C268.663 314.907 269.178 321.347 269.213 327.804C269.168 328.406 269.268 329.011 269.5 329.549C269.695 329.867 269.956 330.118 270.259 330.275C272.241 331.405 274.54 329.83 276.194 328.1C279.255 324.896 281.846 320.593 282.021 315.732C282.065 314.482 281.948 313.217 282.13 311.981C282.398 310.149 283.294 308.555 284.08 306.956C285.426 304.23 286.514 301.333 287.324 298.32C287.624 297.186 287.827 295.761 287.081 294.971C286.819 294.723 286.521 294.537 286.201 294.424L277.24 290.45C276.462 290.106 274.532 296.032 274.228 296.682C273.478 298.267 272.732 299.163 271.228 299.531C269.723 299.9 267.866 299.367 266.431 300.283C263.999 301.828 265.211 303.723 266.585 305.376Z" fill="#535070"/>
<path id="Vector_29" d="M252.768 309.035C252.602 308.639 252.37 308.288 252.086 308.003C251.672 307.687 251.201 307.496 250.712 307.445C249.009 307.096 246.99 306.869 245.81 308.385C244.707 309.805 244.898 312.117 243.978 313.716C243.686 314.201 243.288 314.637 243.037 315.17C242.724 315.986 242.585 316.882 242.631 317.777C242.583 320.244 242.534 322.72 242.68 325.182C242.798 327.247 243.086 329.413 244.168 331.031C245.903 333.629 249.033 334.002 251.807 334.167L254.057 334.307C254.676 334.394 255.303 334.325 255.898 334.104C256.266 333.901 256.597 333.612 256.87 333.253C257.143 332.894 257.353 332.473 257.487 332.015C258.659 328.536 256.806 324.79 255.663 321.3C254.345 317.283 254.58 312.829 252.768 309.035Z" fill="#535070"/>
<path id="Vector_30" d="M234.162 53.1236C234.133 52.7709 234.176 52.415 234.287 52.0865C234.616 51.3935 235.475 51.6019 236.124 51.7764C238.731 52.5615 241.48 51.8491 244.168 52.0332C246.856 52.2174 249.881 53.8215 250.42 56.9715C252.37 55.3218 254.051 53.2588 255.379 50.8847C256.125 49.552 256.773 48.0255 256.672 46.4262C256.526 44.1194 254.908 42.3942 253.428 40.9307L248.969 36.5691C248.381 35.925 247.703 35.4099 246.966 35.0474C245.936 34.6258 244.809 34.8294 243.722 34.8294C240.479 34.8294 237 33.0605 234.109 34.8294C232.893 35.5708 231.988 36.8454 231.113 38.086L227.127 43.7269C226.825 44.0865 226.605 44.5317 226.487 45.0208C226.373 45.709 226.669 46.3875 226.774 47.0805C226.961 48.3405 226.507 49.6877 226.856 50.8992C227.435 52.9055 229.479 53.1915 230.728 54.3448C231.19 54.7713 231.92 56.23 232.475 56.2106C233.452 56.1864 234.133 54.0541 234.162 53.1236Z" fill="#3F3D56"/>
<path id="Vector_31" d="M240.925 69.7604C247.978 69.7604 253.696 62.9259 253.696 54.495C253.696 46.0642 247.978 39.2296 240.925 39.2296C233.871 39.2296 228.153 46.0642 228.153 54.495C228.153 62.9259 233.871 69.7604 240.925 69.7604Z" fill="#FFC0C6"/>
<path id="Vector_32" d="M243.917 87.8996C243.484 86.4201 242.669 85.143 241.59 84.2528C240.511 83.3626 239.223 82.9053 237.912 82.9469C237.536 83.0326 237.147 82.9732 236.801 82.7772C236.605 82.5983 236.448 82.3656 236.343 82.0988C235.569 80.4281 234.945 78.6639 234.482 76.8359C234.279 76.0266 233.999 75.0719 233.314 74.8635C232.763 74.6939 232.199 75.1203 231.83 75.6389C231.503 76.1953 231.149 76.7277 230.768 77.2332C229.146 78.9488 226.308 77.3835 224.609 78.9585C224.33 79.2153 224.098 79.5449 223.798 79.7823C223.507 79.9949 223.191 80.158 222.862 80.2669C219.564 81.5493 216.331 83.059 213.18 84.7884C214.315 92.9493 215.475 101.265 218.134 108.898C219.399 112.533 220.831 116.095 221.844 119.841C224.09 128.142 224.188 137.025 224.216 145.753C224.216 151.724 224.216 157.82 222.594 163.471C222.229 164.75 221.783 166.02 221.682 167.348C221.581 168.675 221.913 170.178 222.825 170.972C223.353 171.389 223.959 171.643 224.589 171.714C227.391 172.199 230.213 171.317 232.97 170.551C240.361 168.506 247.902 167.333 255.423 166.189L268.033 164.251C268.937 164.175 269.822 163.901 270.644 163.442C272.951 161.934 273.17 157.786 271.734 155.15C271.049 153.885 270.08 152.848 269.5 151.51C268.921 150.173 268.876 148.292 269.869 147.367C271.897 145.477 271.288 141.973 271.386 138.91C271.656 130.342 271.62 121.781 271.276 113.226C271.173 111.452 271.149 109.672 271.203 107.895C271.345 104.881 271.97 101.929 272.594 98.9973L276.425 80.9696C275.424 79.0796 273.506 77.8778 271.694 77.335C269.882 76.7922 267.988 76.6323 266.2 75.9684C262.551 74.6115 259.275 71.1707 255.452 71.4905C255.162 71.4967 254.877 71.5795 254.616 71.7328C253.757 72.3192 253.891 73.8022 253.838 74.9846C253.716 77.6064 252.103 79.792 250.327 81.3282C248.551 82.8645 246.516 83.9791 244.882 85.7285C244.598 85.9842 244.365 86.3111 244.198 86.6862C244.031 87.0613 243.935 87.4755 243.917 87.8996Z" fill="#3F3D56"/>
<path id="Vector_33" d="M193.313 105.002C192.467 105.659 191.568 106.213 190.629 106.654C189.737 107.076 188.784 107.41 188.054 108.147C187.693 108.522 187.39 108.969 187.158 109.47C186.726 110.386 186.508 111.424 186.526 112.476C186.544 113.528 186.797 114.554 187.26 115.449C187.723 116.343 188.379 117.073 189.158 117.562C189.937 118.05 190.812 118.28 191.691 118.227C192.863 118.154 193.97 117.587 195.044 117.03L204.053 112.344C205.578 111.554 207.224 110.633 207.946 108.84C208.028 108.672 208.06 108.475 208.035 108.283C207.965 108.071 207.832 107.899 207.662 107.798C205.632 106.219 203.856 104.217 202.419 101.886C202.05 101.285 201.608 99.8697 201.073 99.5062C199.168 98.2413 194.841 103.819 193.313 105.002Z" fill="#FFC0C6"/>
<path id="Vector_34" d="M289.615 101.198L292.935 105.734C293.649 106.703 294.362 107.672 295.011 108.719C296.607 111.347 297.888 114.229 298.814 117.282C299.536 119.545 300.136 121.958 299.885 124.362C299.716 125.594 299.437 126.802 299.053 127.963C298.445 130.195 297.69 132.367 296.795 134.457C296.048 136.043 295.203 137.56 294.269 138.998C291.697 143.071 288.883 146.918 285.848 150.507C284.713 151.85 284.226 154.025 283.744 155.838C282.831 159.187 280.662 161.799 278.566 164.27C277.892 165.122 277.146 165.889 276.34 166.558C275.133 167.488 273.722 167.968 272.286 167.934C271.659 167.938 271.039 167.785 270.465 167.483C269.03 166.669 268.3 164.687 268.15 162.797C268.018 161.08 268.258 159.35 268.848 157.776C270.753 152.732 275.647 150.546 279.105 146.863C281.133 144.706 282.686 141.992 284.218 139.313C285.256 137.637 286.123 135.82 286.801 133.899C287.571 131.433 287.271 128.515 287.948 126.015C288.232 124.953 288.759 123.999 289.047 122.947C289.335 121.895 289.432 120.65 288.893 119.744C288.489 119.164 287.972 118.712 287.389 118.426C285.179 117.088 282.706 115.363 282.284 112.441C282.115 110.822 282.469 109.188 283.273 107.871C284.073 106.57 285.009 105.398 286.059 104.381C287.02 103.344 288.646 102.196 289.615 101.198Z" fill="#FFC0C6"/>
<path id="Vector_35" d="M191.18 111.331C190.596 109.916 189.863 108.472 188.679 107.769C188.102 107.472 187.482 107.319 186.854 107.319C186.227 107.319 185.606 107.472 185.03 107.769C183.882 108.362 182.808 109.138 181.835 110.076L178.972 112.601C178.323 113.11 177.749 113.743 177.273 114.476C176.819 115.365 176.519 116.354 176.39 117.384C175.984 119.744 175.656 122.172 175.94 124.561C176.394 128.438 178.34 131.791 180.48 134.738C181.818 136.57 183.473 138.421 185.508 138.503C186.388 138.537 187.365 138.12 187.73 137.166C187.857 136.786 187.924 136.382 187.929 135.974C188.147 131.67 186.858 127.469 185.358 123.548C184.953 122.482 184.515 121.377 184.547 120.209C184.535 120.011 184.577 119.813 184.669 119.647C184.797 119.486 184.97 119.384 185.155 119.361C187.211 118.876 190.755 120.786 192.194 118.057C193.126 116.255 191.845 112.935 191.18 111.331Z" fill="#FFC0C6"/>
<path id="Vector_36" d="M233.489 48.321C233.463 47.968 233.508 47.6127 233.618 47.284C233.947 46.5861 234.806 46.7993 235.455 46.9738C238.062 47.7589 240.811 47.0465 243.499 47.2306C246.187 47.4148 249.208 49.0189 249.751 52.1689C251.699 50.5166 253.38 48.454 254.71 46.0821C255.456 44.7446 256.104 43.218 256.003 41.6188C255.857 39.312 254.235 37.5868 252.76 36.1281L248.3 31.7666C247.714 31.1225 247.037 30.6073 246.301 30.2449C245.267 29.8232 244.144 30.0268 243.057 30.0268C239.814 30.0268 236.335 28.2579 233.444 30.0268C232.228 30.7682 231.324 32.0428 230.448 33.2834L226.458 38.9243C226.158 39.2847 225.939 39.7298 225.822 40.2183C225.708 40.9064 226.004 41.5849 226.11 42.2779C226.296 43.5379 225.842 44.8851 226.191 46.0918C226.77 48.103 228.814 48.3889 230.063 49.5423C230.525 49.9687 231.255 51.4274 231.81 51.408C232.771 51.3838 233.452 49.2515 233.489 48.321Z" fill="#3F3D56"/>
<path id="Vector_37" d="M206.364 90.1531C205.849 90.5526 205.397 91.056 205.026 91.6409C204.56 92.489 204.463 93.5793 204.061 94.4516C203.202 96.361 201.187 97.0443 199.934 98.6097C199.731 98.8236 199.589 99.1084 199.528 99.4238C199.521 99.8501 199.64 100.266 199.865 100.597L205.922 111.975C207.95 112.189 209.871 110.677 211.89 110.88C212.641 110.953 213.415 111.263 214.137 110.996C214.652 110.722 215.136 110.368 215.576 109.945C216.792 109.034 218.382 108.927 219.391 107.73C220.401 106.533 220.486 104.774 220.474 103.141C220.492 101.723 220.371 100.308 220.113 98.9247C219.221 94.5631 216.427 91.1999 214.676 87.3327C213.82 85.4475 213.358 84.3474 211.554 85.6413C209.75 86.9353 208.071 88.6605 206.364 90.1531Z" fill="#3F3D56"/>
<path id="Vector_38" d="M279.916 84.4007C281.055 85.2842 282.082 86.3581 282.965 87.5895C283.886 89.0094 284.409 90.754 285.297 92.2079C286.185 93.6617 287.324 94.7085 288.297 96.0073C289.777 97.9748 290.778 100.369 291.759 102.748C289.358 106.484 286.74 110.014 283.926 113.313C283.612 113.754 283.198 114.077 282.734 114.243C282.42 114.284 282.101 114.23 281.808 114.087C281.515 113.944 281.257 113.716 281.056 113.424C280.618 112.882 280.31 112.203 279.892 111.636C278.908 110.423 277.597 109.666 276.19 109.499C274.796 109.337 273.392 109.312 271.994 109.426C271.687 109.47 271.376 109.408 271.098 109.247C270.891 109.077 270.723 108.847 270.611 108.578C268.99 105.244 269.496 101.057 270.076 97.2479L271.402 88.5248C271.595 86.8593 271.967 85.2306 272.509 83.6786C273.012 82.3944 274.131 80.2136 275.517 80.6013C276.904 80.989 278.745 83.3927 279.916 84.4007Z" fill="#3F3D56"/>
<path id="Vector_39" d="M164.295 148.346L136.364 155.174L135.727 155.101L111.182 152.14V114.961L141.229 108.888L163.026 111.927L163.034 112.092V112.169L164.295 148.346Z" fill="#EB99EC"/>
<path id="Vector_40" opacity="0.1" d="M164.295 148.346L136.364 155.174L135.727 155.101V116.986L163.034 112.092L164.295 148.346Z" fill="black"/>
<path id="Vector_41" opacity="0.05" d="M163.034 112.169L163.026 112.179L135.727 116.986L111.182 114.961L141.229 108.888L163.026 111.927L163.034 112.092V112.169Z" fill="black"/>
<g id="box1">
<path id="Vector_42" d="M179.114 96.4574L151.182 103.291L150.546 103.213L126 100.252V63.0722L156.048 57L177.844 60.0385L177.853 60.2033V60.2809L179.114 96.4574Z" fill="#3F3D56"/>
<path id="Vector_43" opacity="0.1" d="M179.114 96.4574L151.182 103.29L150.546 103.213V65.0979L177.853 60.2033L179.114 96.4574Z" fill="black"/>
<path id="Vector_44" opacity="0.05" d="M177.853 60.2809L177.844 60.2905L150.546 65.0979L126 63.0722L156.048 57L177.844 60.0385L177.853 60.2033V60.2809Z" fill="black"/>
</g>
</g>
</svg>
