<svg width="416" height="317" viewBox="0 0 416 317" fill="none" xmlns="http://www.w3.org/2000/svg">
<g id="undraw_empty_cart_co35 1">
<g clip-path="url(#clip0)">
<path id="Vector" d="M256.865 15.2182H191.865V16.0658H256.865V15.2182Z" fill="#F2F2F2"/>
<path id="Vector_2" d="M239.223 15.8539H238.294V23.6944H239.223V15.8539Z" fill="#F2F2F2"/>
<path id="Vector_3" d="M210.901 15.8539H209.973V23.6944H210.901V15.8539Z" fill="#F2F2F2"/>
<path id="Vector_4" d="M289.83 55.9042H224.83V56.7519H289.83V55.9042Z" fill="#F2F2F2"/>
<path id="Vector_5" d="M243.401 48.2756H242.473V56.1162H243.401V48.2756Z" fill="#F2F2F2"/>
<path id="Vector_6" d="M271.723 48.2756H270.794V56.1162H271.723V48.2756Z" fill="#F2F2F2"/>
<path id="Vector_7" d="M376.187 74.9758H311.187V75.8235H376.187V74.9758Z" fill="#F2F2F2"/>
<path id="Vector_8" d="M329.758 67.3472H328.83V75.1877H329.758V67.3472Z" fill="#F2F2F2"/>
<path id="Vector_9" d="M358.08 67.3472H357.151V75.1877H358.08V67.3472Z" fill="#F2F2F2"/>
<path id="Vector_10" d="M369.687 271.625H304.687V272.473H369.687V271.625Z" fill="#F2F2F2"/>
<path id="Vector_11" d="M323.258 263.996H322.33V271.837H323.258V263.996Z" fill="#F2F2F2"/>
<path id="Vector_12" d="M351.58 263.996H350.651V271.837H351.58V263.996Z" fill="#F2F2F2"/>
<path id="Vector_13" d="M258.723 135.581H193.723V136.429H258.723V135.581Z" fill="#F2F2F2"/>
<path id="Vector_14" d="M212.294 127.952H211.365V135.793H212.294V127.952Z" fill="#F2F2F2"/>
<path id="Vector_15" d="M240.615 127.952H239.687V135.793H240.615V127.952Z" fill="#F2F2F2"/>
<path id="Vector_16" d="M279.151 237.72H214.151V238.568H279.151V237.72Z" fill="#F2F2F2"/>
<path id="Vector_17" d="M232.723 230.091H231.794V237.932H232.723V230.091Z" fill="#F2F2F2"/>
<path id="Vector_18" d="M261.044 230.091H260.115V237.932H261.044V230.091Z" fill="#F2F2F2"/>
<path id="Vector_19" d="M383.151 206.782H318.151V207.629H383.151V206.782Z" fill="#F2F2F2"/>
<path id="Vector_20" d="M336.722 199.153H335.794V206.994H336.722V199.153Z" fill="#F2F2F2"/>
<path id="Vector_21" d="M365.044 199.153H364.115V206.994H365.044V199.153Z" fill="#F2F2F2"/>
<path id="Vector_22" d="M157 272H47V271.219H156.208V233.326H56.2474L51.3914 223.338L52.105 223L56.7454 232.544H157V272Z" fill="#2F2E41"/>
<path id="Vector_23" d="M168.306 224.046H44.7374L18 144.269H195.842L195.68 144.738L168.306 224.046ZM45.3225 223.324H167.726L194.764 144.991H19.069L45.3225 223.324Z" fill="#2F2E41"/>
<path id="Vector_24" d="M158.661 219.895H50.1256L26.6411 149.142H182.846L182.704 149.559L158.661 219.895Z" fill="#F2F2F2"/>
<path id="Vector_25" d="M195.774 144L195 143.847L200.281 129H231V129.597H200.897L195.774 144Z" fill="#2F2E41"/>
<path id="Vector_26" d="M186.506 169.354H26.1914V170.076H186.506V169.354Z" fill="#2F2E41"/>
<path id="Vector_27" d="M177.325 195.952H35.1059V196.674H177.325V195.952Z" fill="#2F2E41"/>
<path id="Vector_28" d="M106.865 145.529H106.074V224.584H106.865V145.529Z" fill="#2F2E41"/>
<path id="Vector_29" d="M142.276 145.506L136.598 224.559L137.387 224.607L143.065 145.554L142.276 145.506Z" fill="#2F2E41"/>
<path id="Vector_30" d="M70.6803 145.505L69.8909 145.552L75.5354 224.608L76.3248 224.561L70.6803 145.505Z" fill="#2F2E41"/>
<path id="Vector_31" d="M276.441 26.2238C276.441 26.2238 283.228 43.8571 279.051 46.5699C274.874 49.2827 293.147 71.4373 293.147 71.4373L315.075 66.0117L303.067 47.4742C303.067 47.4742 301.501 28.9366 301.501 26.2238C301.501 23.511 276.441 26.2238 276.441 26.2238Z" fill="#FFC0C6"/>
<path id="Vector_32" d="M265.048 151.917C265.048 151.917 263.067 174.524 265.048 186.28C267.03 198.035 270.002 230.589 270.002 230.589C270.002 230.589 270.002 292.079 280.898 292.984C291.795 293.888 299.72 294.792 300.711 291.175C301.702 287.558 295.758 285.749 298.73 283.941C301.702 282.132 302.692 275.803 298.73 268.568C294.767 261.334 298.73 188.088 298.73 188.088L317.552 234.206C317.552 234.206 319.533 272.185 321.514 277.611C323.495 283.037 319.533 292.984 326.467 293.888C333.402 294.792 341.327 289.367 345.289 287.558C349.252 285.749 339.345 285.749 341.327 284.845C343.308 283.941 349.252 281.228 347.27 280.324C345.289 279.42 343.308 236.015 343.308 236.015C343.308 236.015 337.859 143.327 330.925 139.71C323.991 136.093 319.533 142.323 319.533 142.323L265.048 151.917Z" fill="#2F2E41"/>
<path id="Vector_33" d="M282.88 289.367V296.601C282.88 296.601 273.964 316.265 282.88 316.265C291.795 316.265 298.73 318.303 298.73 315.59V291.175L282.88 289.367Z" fill="#2F2E41"/>
<path id="Vector_34" d="M341.327 289.354V296.588C341.327 296.588 350.242 316.253 341.327 316.253C332.411 316.253 325.477 318.29 325.477 315.578V291.162L341.327 289.354Z" fill="#2F2E41"/>
<path id="Vector_35" d="M290.309 39.3358C300.157 39.3358 308.141 32.0484 308.141 23.0589C308.141 14.0694 300.157 6.78204 290.309 6.78204C280.461 6.78204 272.478 14.0694 272.478 23.0589C272.478 32.0484 280.461 39.3358 290.309 39.3358Z" fill="#FFC0C6"/>
<path id="Vector_36" d="M284.861 53.352C284.861 53.352 289.814 66.916 297.739 64.2032L305.664 61.4904L319.533 148.3C319.533 148.3 308.636 162.769 292.786 153.726C276.936 144.683 284.861 53.352 284.861 53.352Z" fill="#C65DF8"/>
<path id="Vector_37" d="M298.73 50.6392L303.188 42.0486C303.188 42.0486 329.439 53.352 333.402 56.969C337.364 60.5861 337.364 66.0118 337.364 66.0118L330.43 88.6185C330.43 88.6185 332.411 138.353 332.411 140.162C332.411 141.97 339.345 151.917 334.392 148.3C329.439 144.683 328.448 141.066 324.486 146.492C320.524 151.917 311.608 158.247 311.608 158.247L298.73 50.6392Z" fill="#3F3D56"/>
<path id="Vector_38" d="M333.402 115.747L330.43 141.066C330.43 141.066 312.598 155.535 316.561 156.439C320.523 157.343 322.505 153.726 322.505 153.726C322.505 153.726 329.439 160.056 333.402 156.439C337.364 152.822 347.27 118.459 347.27 118.459L333.402 115.747Z" fill="#FFC0C6"/>
<path id="Vector_39" d="M290.689 0.055041C286.736 -0.0739549 282.506 -0.137765 279.173 1.80675C277.64 2.78262 276.295 3.98449 275.193 5.36319C271.947 9.10904 269.142 13.8222 270.348 18.4698L271.749 17.9712C271.748 19.2118 271.446 20.4368 270.864 21.5578C271.061 21.0343 271.722 21.8805 271.545 22.41L270.002 27.0298C272.538 26.1812 275.693 27.8994 276.079 30.3397C276.255 24.9737 276.865 18.8206 281.634 15.6786C284.038 14.0941 287.082 13.6104 290.01 13.1808C292.711 12.7846 295.543 12.4067 298.131 13.2185C300.718 14.0303 302.921 16.4458 302.335 18.8853C303.528 18.5101 304.862 19.2691 305.452 20.2875C306.041 21.3059 306.072 22.5072 306.09 23.6589C307.362 24.4794 308.809 22.8502 309.328 21.5097C310.544 18.3632 311.625 15.0138 310.97 11.7311C310.315 8.4484 307.384 5.31129 303.729 5.30016C304.173 4.85529 304.409 4.27034 304.389 3.66901L301.376 3.43663C302.141 3.33777 302.844 2.99924 303.366 2.47901C302.156 3.69405 292.645 0.118872 290.689 0.055041Z" fill="#2F2E41"/>
<path id="Vector_40" d="M289.814 47.9264C289.814 47.9264 281.75 40.7127 278.848 41.1546C275.945 41.5965 271.983 47.9264 271.983 47.9264C271.983 47.9264 248.208 55.1605 249.198 62.3947C250.189 69.6288 261.086 104.895 261.086 104.895C261.086 104.895 270.002 147.396 262.077 151.917C254.152 156.439 299.72 168.194 300.711 162.769C301.702 157.343 303.683 103.087 300.711 94.9484C297.739 86.81 289.814 47.9264 289.814 47.9264Z" fill="#3F3D56"/>
<path id="Vector_41" d="M324.486 62.3947H336.735C336.735 62.3947 345.289 96.7569 346.28 100.374C347.27 103.991 349.252 121.172 348.261 121.172C347.27 121.172 327.458 117.555 327.458 120.268L324.486 62.3947Z" fill="#3F3D56"/>
<path id="Vector_42" d="M324.071 147.487H277.179C272.603 128.271 272.22 109.705 277.179 91.9674H324.071C316.504 109.386 316.031 127.825 324.071 147.487Z" fill="#F2F2F2"/>
<path id="Vector_43" d="M258.114 123.885L271.983 129.311C271.983 129.311 298.73 132.928 298.73 122.981C298.73 113.034 271.983 118.459 271.983 118.459L263.067 115.857L258.114 123.885Z" fill="#FFC0C6"/>
<path id="Vector_44" d="M261.086 56.9691L249.198 59.6819L240.283 107.608C240.283 107.608 237.311 120.268 242.264 121.172C247.217 122.077 261.086 129.311 261.086 129.311C261.086 129.311 263.067 115.747 267.03 115.747L257.123 108.512L263.067 76.863L261.086 56.9691Z" fill="#3F3D56"/>
<path id="Vector_45" d="M92.9725 149.567H27.9725V150.415H92.9725V149.567Z" fill="#F2F2F2"/>
<path id="Vector_46" d="M46.544 141.938H45.6154V149.779H46.544V141.938Z" fill="#F2F2F2"/>
<path id="Vector_47" d="M74.8654 141.938H73.9368V149.779H74.8654V141.938Z" fill="#F2F2F2"/>
<path id="Vector_48" d="M115.723 24.1183H50.7225V24.9659H115.723V24.1183Z" fill="#F2F2F2"/>
<path id="Vector_49" d="M98.0797 24.754H97.1511V32.5945H98.0797V24.754Z" fill="#F2F2F2"/>
<path id="Vector_50" d="M69.7582 24.754H68.8297V32.5945H69.7582V24.754Z" fill="#F2F2F2"/>
<path id="Vector_51" d="M181.187 107.609H116.187V108.457H181.187V107.609Z" fill="#F2F2F2"/>
<path id="Vector_52" d="M163.544 108.245H162.615V116.086H163.544V108.245Z" fill="#F2F2F2"/>
<path id="Vector_53" d="M135.223 108.245H134.294V116.086H135.223V108.245Z" fill="#F2F2F2"/>
<path id="Vector_54" d="M70.6868 107.186H5.68681V108.033H70.6868V107.186Z" fill="#F2F2F2"/>
<path id="Vector_55" d="M53.044 107.821H52.1154V115.662H53.044V107.821Z" fill="#F2F2F2"/>
<path id="Vector_56" d="M24.7225 107.821H23.794V115.662H24.7225V107.821Z" fill="#F2F2F2"/>
<path id="Vector_57" d="M148.687 64.8043H83.6868V65.6519H148.687V64.8043Z" fill="#F2F2F2"/>
<path id="Vector_58" d="M102.258 57.1757H101.33V65.0162H102.258V57.1757Z" fill="#F2F2F2"/>
<path id="Vector_59" d="M130.58 57.1757H129.651V65.0162H130.58V57.1757Z" fill="#F2F2F2"/>
<g id="cwheel2">
<g id="Group 24">
<path id="Vector_60" d="M66.4633 305L65.6041 291.148L65.5863 291.119L64.7204 291.43L60.7358 303.43L54.3986 298.793L64.4929 291.239L64.5025 291.209L64.56 291.188L65.2109 290.7L54.6274 284.575L52.035 287.517L52.4461 290.274L64.6162 290.504V290.786L52.2186 290.557L51.75 287.426L55.2988 283.401L60.6084 277.008L60.7029 277.273L61.8265 276L66.0001 276.772V276.601L66.2742 276.61V276.823L72.4894 277.972L66.6948 289.938L65.8494 290.57V290.641V290.72L79.25 285.9L77.6592 298.8L66.2865 291.322L65.8864 291.09L72.5922 302.246L66.4633 305ZM65.9152 291.658L66.7167 304.581L72.2044 302.123L65.9152 291.658ZM54.8741 298.79L60.6001 302.98L64.3463 291.703L54.8741 298.79ZM66.1536 290.918L66.44 291.083L77.4495 298.325L78.9294 286.321L66.1536 290.918ZM65.1807 289.9L65.5247 290.472L65.585 290.427L65.996 277.058L61.921 276.305L60.8029 277.578L65.1807 289.9ZM54.8467 284.375L65.1013 290.315L64.9231 290.014L60.596 277.813L55.5002 283.593L54.8467 284.375ZM66.2742 277.107L65.8631 290.221L66.4824 289.757L72.0879 278.185L66.2742 277.107Z" fill="#535461"/>
<path id="Vector_61" d="M81.5975 286.866C81.035 284.367 79.8962 282.034 78.272 280.053C77.6691 279.317 77.0042 278.633 76.2846 278.011C73.5179 275.622 70.0363 274.22 66.3863 274.024C62.7364 273.828 59.1246 274.849 56.1178 276.927C53.1111 279.006 50.8796 282.024 49.7736 285.507C48.6675 288.991 48.7496 292.743 50.0068 296.175C51.264 299.607 53.6253 302.525 56.72 304.47C59.8147 306.415 63.4677 307.277 67.1056 306.922C70.7435 306.566 74.1604 305.013 76.8201 302.506C79.4798 299.999 81.2317 296.68 81.8008 293.069C81.9333 292.219 81.9999 291.36 82 290.5C82.0009 289.277 81.8659 288.059 81.5975 286.866ZM65.4415 302.903C62.8843 302.9 60.39 302.11 58.2978 300.64C56.2055 299.17 54.6169 297.091 53.7478 294.686C52.8787 292.282 52.7714 289.668 53.4405 287.2C54.1095 284.732 55.5225 282.53 57.4872 280.893C59.452 279.256 61.8731 278.265 64.4214 278.052C66.9698 277.84 69.5216 278.418 71.73 279.707C73.9384 280.996 75.6962 282.934 76.7643 285.257C77.8324 287.581 78.159 290.176 77.6998 292.692C77.1738 295.559 75.6591 298.151 73.4194 300.017C71.1796 301.882 68.3566 302.904 65.4415 302.903Z" fill="#535461"/>
</g>
</g>
<g id="cwheel1">
<g id="Group 23">
<path id="Vector_62" d="M138.463 305L137.604 291.148L137.586 291.119L136.72 291.43L132.736 303.43L126.399 298.793L136.493 291.239L136.502 291.209L136.56 291.188L137.211 290.7L126.627 284.575L124.035 287.517L124.446 290.274L136.616 290.504V290.786L124.219 290.557L123.75 287.426L127.299 283.401L132.608 277.008L132.703 277.273L133.826 276L138 276.772V276.601L138.274 276.61V276.823L144.489 277.972L138.695 289.938L137.849 290.57V290.641V290.72L151.25 285.9L149.659 298.8L138.286 291.322L137.886 291.09L144.592 302.246L138.463 305ZM137.915 291.658L138.717 304.581L144.204 302.123L137.915 291.658ZM126.874 298.79L132.6 302.98L136.346 291.703L126.874 298.79ZM138.154 290.918L138.44 291.083L149.45 298.325L150.929 286.321L138.154 290.918ZM137.181 289.9L137.525 290.472L137.585 290.427L137.996 277.058L133.921 276.305L132.803 277.578L137.181 289.9ZM126.847 284.375L137.101 290.315L136.923 290.014L132.596 277.813L127.5 283.593L126.847 284.375ZM138.274 277.107L137.863 290.221L138.482 289.757L144.088 278.185L138.274 277.107Z" fill="#535461"/>
<path id="Vector_63" d="M153.597 286.866C153.035 284.367 151.896 282.034 150.272 280.053C149.669 279.317 149.004 278.633 148.285 278.011C145.518 275.622 142.036 274.22 138.386 274.024C134.736 273.828 131.125 274.849 128.118 276.927C125.111 279.006 122.88 282.024 121.774 285.507C120.668 288.991 120.75 292.743 122.007 296.175C123.264 299.607 125.625 302.525 128.72 304.47C131.815 306.415 135.468 307.277 139.106 306.922C142.744 306.566 146.16 305.013 148.82 302.506C151.48 299.999 153.232 296.68 153.801 293.069C153.933 292.219 154 291.36 154 290.5C154.001 289.277 153.866 288.059 153.597 286.866ZM137.441 302.903C134.884 302.9 132.39 302.11 130.298 300.64C128.206 299.17 126.617 297.091 125.748 294.686C124.879 292.282 124.771 289.668 125.44 287.2C126.11 284.732 127.523 282.53 129.487 280.893C131.452 279.256 133.873 278.265 136.421 278.052C138.97 277.84 141.522 278.418 143.73 279.707C145.938 280.996 147.696 282.934 148.764 285.257C149.832 287.581 150.159 290.176 149.7 292.692C149.174 295.559 147.659 298.151 145.419 300.017C143.18 301.882 140.357 302.904 137.441 302.903Z" fill="#535461"/>
</g>
</g>
</g>
</g>
<defs>
<clipPath id="clip0">
<rect width="416" height="317" fill="white"/>
</clipPath>
</defs>
</svg>
