<svg width="432" height="365" viewBox="0 0 432 365" fill="none" xmlns="http://www.w3.org/2000/svg">
<g id="undraw_online_shopping_ga73 1">
<g clip-path="url(#clip0)">
<path id="Vector" opacity="0.1" d="M271.11 69.5255C253.124 82.0503 229.797 81.2353 209.357 74.7247C188.917 68.214 170.137 56.6025 150.229 48.3541C133.506 41.4354 116.047 36.908 98.2772 34.8831C72.8948 31.9932 44.5516 35.5108 26.8643 55.7594C7.16912 78.3126 8.67922 118.992 29.9823 139.686C40.8168 150.216 55.0075 155.382 67.3818 163.602C79.7561 171.823 91.2031 185.476 90.1525 201.345C89.1783 216.034 77.8377 227.308 66.1014 234.381C57.028 239.847 45.8533 245.815 44.76 257.136C43.7051 268.091 53.0975 276.677 62.0688 281.558C91.335 297.483 127.39 297.328 156.542 281.155C166.942 275.384 176.505 267.712 187.412 263.215C216.052 251.407 247.607 263.295 277.933 267.642C303.683 271.313 329.836 269.418 354.927 262.063C369.943 257.651 385.018 250.906 395.568 238.339C403.173 229.276 407.904 217.809 412.366 206.488C417.11 194.41 421.67 182.247 426.046 170C428.675 162.647 431.261 155.152 431.938 147.283C433.167 133.03 427.99 118.941 420.933 106.908C404.173 78.3407 375.966 58.256 345.424 53.1552C314.881 48.0544 282.557 58.0265 258.863 79.8208" fill="#FF748E"/>
<path id="Vector_2" opacity="0.1" d="M57.7412 365C89.6308 365 115.482 359.434 115.482 352.569C115.482 345.703 89.6308 340.138 57.7412 340.138C25.8516 340.138 0 345.703 0 352.569C0 359.434 25.8516 365 57.7412 365Z" fill="#FF748E"/>
<path id="Vector_3" opacity="0.1" d="M229.276 339.037C296.124 339.037 350.314 333.471 350.314 326.606C350.314 319.74 296.124 314.175 229.276 314.175C162.429 314.175 108.238 319.74 108.238 326.606C108.238 333.471 162.429 339.037 229.276 339.037Z" fill="#FF748E"/>
<path id="Vector_4" d="M119.889 -2V10.8246V328.433H335.728V10.8246V-2H119.889Z" fill="url(#paint0_linear)"/>
<path id="Vector_5" d="M333.835 0.899353H121.782V13.4944H333.835V0.899353Z" fill="#F6F7F9"/>
<g id="Group" opacity="0.2">
<path id="Vector_6" opacity="0.2" d="M333.835 0.899353H121.782V13.4944H333.835V0.899353Z" fill="#FF748E"/>
</g>
<path id="Vector_7" d="M333.835 13.4944H121.782V325.533H333.835V13.4944Z" fill="#F6F7F9"/>
<path id="Vector_8" d="M127.359 9.33043C128.43 9.33043 129.299 8.37417 129.299 7.19456C129.299 6.01495 128.43 5.05869 127.359 5.05869C126.288 5.05869 125.419 6.01495 125.419 7.19456C125.419 8.37417 126.288 9.33043 127.359 9.33043Z" fill="#F6F7F9"/>
<path id="Vector_9" d="M132.617 9.33043C133.688 9.33043 134.557 8.37417 134.557 7.19456C134.557 6.01495 133.688 5.05869 132.617 5.05869C131.546 5.05869 130.677 6.01495 130.677 7.19456C130.677 8.37417 131.546 9.33043 132.617 9.33043Z" fill="#F6F7F9"/>
<path id="Vector_10" d="M137.874 9.33043C138.946 9.33043 139.814 8.37417 139.814 7.19456C139.814 6.01495 138.946 5.05869 137.874 5.05869C136.803 5.05869 135.935 6.01495 135.935 7.19456C135.935 8.37417 136.803 9.33043 137.874 9.33043Z" fill="#F6F7F9"/>
<g id="Group_2" opacity="0.2">
<path id="Vector_11" opacity="0.2" d="M295.984 32.7314H159.629V38.6097H295.984V32.7314Z" fill="#FF748E"/>
</g>
<path id="Vector_12" d="M295.984 32.7314H277.867V38.6097H295.984V32.7314Z" fill="#FF748E"/>
<g id="c2" opacity="0.2">
<path id="Vector_13" opacity="0.2" d="M225.894 152.86H140.086V220.538H225.894V152.86Z" fill="#FF748E"/>
</g>
<g id="Group_3" opacity="0.2">
<path id="Vector_14" opacity="0.2" d="M225.894 65.0692H140.086V132.747H225.894V65.0692Z" fill="#FF748E"/>
</g>
<g id="c1" opacity="0.2">
<path id="Vector_15" opacity="0.2" d="M225.894 239.508H140.086V307.186H225.894V239.508Z" fill="#FF748E"/>
</g>
<g id="Group_4" opacity="0.2">
<path id="Vector_16" opacity="0.2" d="M315.531 152.86H229.723V220.538H315.531V152.86Z" fill="#FF748E"/>
</g>
<g id="c3" opacity="0.2">
<path id="Vector_17" opacity="0.2" d="M315.531 65.0692H229.723V132.747H315.531V65.0692Z" fill="#FF748E"/>
</g>
<g id="Group_5" opacity="0.2">
<path id="Vector_18" opacity="0.2" d="M315.531 239.508H229.723V307.186H315.531V239.508Z" fill="#FF748E"/>
</g>
<path id="Vector_19" opacity="0.1" d="M396.272 295.195C396.537 295.616 396.746 296.077 396.893 296.563C402.211 303.439 405.039 309.856 399.931 310.02C395.175 310.17 389.462 319.538 388.096 321.903C388.141 322.086 388.195 322.266 388.258 322.442C388.258 322.442 394.949 310.189 400.398 310.02C405.848 309.851 402.266 302.563 396.272 295.195Z" fill="black"/>
<path id="Vector_20" d="M401.917 300.765C401.917 302.301 401.76 303.547 401.568 303.547C401.377 303.547 401.215 302.301 401.215 300.765C401.215 299.228 401.411 299.95 401.607 299.95C401.802 299.95 401.917 299.224 401.917 300.765Z" fill="#FFD037"/>
<path id="Vector_21" d="M403.853 302.601C402.627 303.336 401.555 303.781 401.466 303.594C401.377 303.406 402.291 302.657 403.516 301.922C404.742 301.186 404.261 301.725 404.367 301.922C404.474 302.118 405.078 301.879 403.853 302.601Z" fill="#FFD037"/>
<path id="Vector_22" opacity="0.1" d="M349.733 336.726C367.259 336.726 381.467 334.325 381.467 331.363C381.467 328.401 367.259 326 349.733 326C332.208 326 318 328.401 318 331.363C318 334.325 332.208 336.726 349.733 336.726Z" fill="#FF748E"/>
<g id="c5">
<path id="Vector_23" d="M251.66 78.1467C251.66 78.1467 250.881 76.0062 256.13 76.5401C261.38 77.0741 276.451 78.9196 282.968 77.3036C289.485 75.6876 293.368 75.1724 292.981 77.3036C292.594 79.4348 281.704 84.2499 281.704 84.2499L267.603 85.8565L257.202 84.0344L251.617 80.395L251.66 78.1467Z" fill="#FF748E"/>
<path id="Vector_24" opacity="0.1" d="M292.994 77.3036C292.603 79.4348 281.717 84.2499 281.717 84.2499L267.616 85.8565L257.215 84.0391L251.634 80.3997L251.672 78.1514C251.618 77.9662 251.618 77.767 251.671 77.5815C251.725 77.396 251.829 77.2334 251.97 77.1163C252.451 76.6479 253.574 76.2825 256.143 76.5448C261.397 77.0788 276.464 78.9196 282.981 77.3036C288.289 75.9874 291.854 75.402 292.764 76.3668C292.877 76.485 292.957 76.6348 292.998 76.7999C293.038 76.9651 293.037 77.1393 292.994 77.3036Z" fill="black"/>
<path id="Vector_25" d="M301.374 109.73C292.301 111.654 283.744 115.826 276.353 121.932C275.979 120.837 275.275 119.916 274.358 119.323C273.732 118.896 273.049 118.579 272.333 118.386C271.682 118.204 271.057 118.639 270.483 119.267C269.822 120.072 269.268 120.975 268.837 121.951C258.921 114.457 243.88 109.674 243.88 109.674V108.175C243.88 107.88 243.926 107.524 243.977 107.122C244.028 106.719 244.092 106.363 244.173 105.927C245.449 98.7794 250.494 82.4466 250.494 82.4466H252.055H256.199L267.258 84.9759L279.701 84.1375L292.233 81.2662L293.858 80.8915C296.567 83.2335 299.643 99.6272 300.851 106.606C301.004 107.492 301.123 108.222 301.212 108.761C301.319 109.37 301.374 109.73 301.374 109.73Z" fill="#FF748E"/>
<path id="Vector_26" d="M245.938 106.634C246.266 99.7724 251.217 84.901 252.055 82.4325H250.494C250.494 82.4325 245.151 99.7631 244.067 106.527C244.064 106.544 244.064 106.561 244.067 106.578C244.037 106.761 244.007 106.939 243.986 107.107C243.935 107.51 243.901 107.866 243.888 108.161V109.66C243.888 109.66 258.929 114.447 268.845 121.937C269.277 120.961 269.831 120.058 270.491 119.253C266.701 115.459 252.328 109.276 245.938 106.634Z" fill="#FF748E"/>
<path id="Vector_27" d="M301.212 108.742C301.174 108.503 301.127 108.227 301.076 107.922C301.012 107.529 300.936 107.084 300.851 106.588C299.643 99.5991 296.567 83.2007 293.858 80.8728L292.233 81.2475C293.219 84.1656 299.579 103.22 299.039 106.939C288.404 109.281 277.625 116.892 274.367 119.323C275.283 119.916 275.988 120.837 276.362 121.932C283.753 115.826 292.309 111.654 301.383 109.73C301.383 109.73 301.319 109.37 301.212 108.742Z" fill="#FF748E"/>
<path id="Vector_28" opacity="0.1" d="M246.33 106.203C246.653 99.3415 251.609 84.47 252.447 82.0063H250.881C250.881 82.0063 245.539 99.3368 244.454 106.096C244.454 106.096 244.454 106.133 244.454 106.147C244.423 106.335 244.397 106.513 244.377 106.681C244.326 107.084 244.292 107.44 244.279 107.735V109.234C244.279 109.234 259.317 114.016 269.236 121.511C269.664 120.534 270.217 119.63 270.878 118.827C267.088 115.042 252.719 108.845 246.33 106.203Z" fill="black"/>
<path id="Vector_29" d="M245.938 106.634C246.266 99.7724 251.217 84.901 252.055 82.4325H250.494C250.494 82.4325 245.151 99.7631 244.067 106.527C244.064 106.544 244.064 106.561 244.067 106.578C244.037 106.761 244.007 106.939 243.986 107.107C243.935 107.51 243.901 107.866 243.888 108.161V109.66C243.888 109.66 258.929 114.447 268.845 121.937C269.277 120.961 269.831 120.058 270.491 119.253C266.701 115.459 252.328 109.276 245.938 106.634Z" fill="#FF748E"/>
<path id="Vector_30" opacity="0.1" d="M300.825 108.311L300.689 107.492C300.621 107.098 300.549 106.658 300.464 106.157C299.26 99.1729 296.18 82.7745 293.47 80.4419L291.85 80.8213C292.837 83.7394 299.196 102.794 298.656 106.513C288.021 108.855 277.238 116.466 273.984 118.892C274.901 119.486 275.605 120.409 275.979 121.506C283.367 115.397 291.923 111.223 300.995 109.3C300.995 109.3 300.932 108.948 300.825 108.311Z" fill="black"/>
<path id="Vector_31" d="M301.212 108.742C301.174 108.503 301.127 108.227 301.076 107.922C301.012 107.529 300.936 107.084 300.851 106.588C299.643 99.5991 296.567 83.2007 293.858 80.8728L292.233 81.2475C293.219 84.1656 299.579 103.22 299.039 106.939C288.404 109.281 277.625 116.892 274.367 119.323C275.283 119.916 275.988 120.837 276.362 121.932C283.753 115.826 292.309 111.654 301.383 109.73C301.383 109.73 301.319 109.37 301.212 108.742Z" fill="#FF748E"/>
<path id="Vector_32" opacity="0.1" d="M249.635 90.9011C249.635 90.9011 259.504 97.7396 261.809 87.7254L264.004 88.3718C264.004 88.3718 264.727 99.468 248.98 93.1353L249.635 90.9011Z" fill="black"/>
<path id="Vector_33" d="M249.635 90.0439C249.635 90.0439 259.504 96.8825 261.809 86.8682L264.004 87.5146C264.004 87.5146 264.727 98.6108 248.98 92.2782L249.635 90.0439Z" fill="#FF748E"/>
<path id="Vector_34" opacity="0.1" d="M280.688 88.0486C280.688 88.0486 281.964 96.2314 295.487 92.2641L295.01 90.7184C295.01 90.7184 285.775 94.934 282.428 87.613L280.688 88.0486Z" fill="black"/>
<path id="Vector_35" d="M280.688 87.1914C280.688 87.1914 281.964 95.3742 295.487 91.4069L295.01 89.8612C295.01 89.8612 285.775 94.0768 282.428 86.7558L280.688 87.1914Z" fill="#FF748E"/>
<path id="Vector_36" opacity="0.1" d="M271.687 87.9408V105.018H274.086C274.086 105.018 277.404 103.702 277.327 96.0253C277.251 88.3483 276.744 86.2827 276.744 86.2827L271.687 87.9408Z" fill="black"/>
<path id="Vector_37" d="M271.3 87.5146V104.592H273.699C273.699 104.592 277.017 103.276 276.94 95.5991C276.864 87.9221 276.353 85.8565 276.353 85.8565L271.3 87.5146Z" fill="#FF748E"/>
<path id="Vector_38" opacity="0.1" d="M293.845 81.7346C292.866 83.7393 283.984 87.0321 282.415 87.5989L282.177 87.6832C282.177 87.6832 281.615 87.8425 280.675 88.0579C277.816 88.7137 271.444 89.9315 266.637 88.8635C265.94 88.7137 265.217 88.5497 264.481 88.3952L262.779 87.9877C257.249 86.634 251.528 84.8635 250.511 83.3037C250.511 83.3037 250.788 78.2123 251.719 78.3481C252.651 78.484 263.051 83.3037 263.051 83.3037L263.2 83.3271C263.468 83.3646 264.077 83.4489 264.932 83.5567C268.309 83.9642 275.426 84.6105 279.254 83.4817C279.437 83.4255 279.607 83.3693 279.773 83.3037C280.062 83.196 280.364 83.0836 280.675 82.9571C285.601 81.0367 292.977 77.5987 292.977 77.5987C292.977 77.5987 294.925 79.5285 293.845 81.7346Z" fill="black"/>
<path id="Vector_39" opacity="0.1" d="M292.994 77.3036C292.603 79.4348 281.717 84.2499 281.717 84.2499L267.616 85.8565L257.215 84.0391L251.634 80.3997L251.672 78.1514C251.618 77.9662 251.618 77.767 251.671 77.5815C251.725 77.396 251.829 77.2334 251.97 77.1163C253.821 77.7345 263.03 82.0016 263.03 82.0016L263.179 82.025C263.447 82.0625 264.055 82.1468 264.91 82.2545C268.288 82.662 275.404 83.3084 279.233 82.1796C279.416 82.1234 279.586 82.0672 279.752 82.0016C280.041 81.8985 280.343 81.7814 280.654 81.655C285.107 79.9172 291.569 76.9383 292.764 76.3856C292.874 76.502 292.953 76.6486 292.993 76.81C293.033 76.9715 293.034 77.1419 292.994 77.3036Z" fill="black"/>
<path id="Vector_40" d="M293.845 80.8728C292.866 82.8775 283.984 86.1656 282.415 86.7324L282.177 86.8214C282.177 86.8214 281.615 86.9759 280.675 87.1914C277.816 87.8471 271.444 89.065 266.637 87.997C265.94 87.8471 265.217 87.6832 264.481 87.5286L262.779 87.1211C257.249 85.7675 251.528 83.9969 250.511 82.4372C250.511 82.4372 250.788 77.3458 251.719 77.4863C252.651 77.6268 263.051 82.4372 263.051 82.4372L263.2 82.4606C263.468 82.4981 264.077 82.5871 264.932 82.6901C268.309 83.0976 275.426 83.744 279.254 82.6152C279.437 82.559 279.607 82.5028 279.773 82.4372C280.062 82.3342 280.364 82.2171 280.675 82.0906C285.601 80.1702 292.977 76.7322 292.977 76.7322C292.977 76.7322 294.925 78.676 293.845 80.8728Z" fill="#FF748E"/>
<path id="Vector_41" opacity="0.1" d="M273.371 87.9971C274.231 87.9971 274.928 87.2295 274.928 86.2827C274.928 85.3359 274.231 84.5684 273.371 84.5684C272.511 84.5684 271.814 85.3359 271.814 86.2827C271.814 87.2295 272.511 87.9971 273.371 87.9971Z" fill="black"/>
<path id="Vector_42" d="M273.371 87.5661C274.231 87.5661 274.928 86.7986 274.928 85.8518C274.928 84.905 274.231 84.1375 273.371 84.1375C272.511 84.1375 271.814 84.905 271.814 85.8518C271.814 86.7986 272.511 87.5661 273.371 87.5661Z" fill="#FF748E"/>
<path id="Vector_43" opacity="0.1" d="M265.302 82.6714L264.876 87.5052L263.175 87.0977L263.6 82.4419C263.838 82.4887 264.451 82.5777 265.302 82.6714Z" fill="black"/>
<path id="Vector_44" d="M264.919 82.6714L264.493 87.5052L262.792 87.0977L263.217 82.4419C263.451 82.4887 264.068 82.5777 264.919 82.6714Z" fill="#FF748E"/>
<path id="Vector_45" opacity="0.1" d="M282.036 86.7324L281.798 86.8214C281.798 86.8214 281.241 86.9759 280.296 87.1914L278.846 82.6058C279.029 82.5496 279.203 82.4934 279.369 82.4278C279.658 82.3248 279.96 82.2077 280.271 82.0812L282.036 86.7324Z" fill="black"/>
<path id="Vector_46" d="M282.428 86.7324L282.189 86.8214C282.189 86.8214 281.628 86.9759 280.688 87.1914L279.237 82.6058C279.42 82.5496 279.59 82.4934 279.756 82.4278C280.045 82.3248 280.347 82.2077 280.658 82.0812L282.428 86.7324Z" fill="#FF748E"/>
</g>
<g id="Group_6" opacity="0.5">
<path id="Vector_47" opacity="0.5" d="M172.713 74.2403C174.703 74.2546 176.654 74.8511 178.367 75.9687C178.367 75.9687 183.548 76.6619 186.372 75.9687C189.197 75.2755 190.626 72.8586 191.162 73.5471C191.698 74.2356 191.711 80.7229 191.711 80.7229L189.278 87.8987L183.782 92.3906L175.07 89.627L172.186 81.5098L172.713 74.2403Z" fill="#FF748E"/>
<path id="Vector_48" opacity="0.1" d="M191.711 80.7323L189.278 87.9081L183.782 92.4L175.07 89.6364L172.186 81.5098L172.734 74.2497H172.862C174.809 74.3043 176.711 74.9005 178.392 75.9828C178.392 75.9828 183.573 76.676 186.398 75.9828C189.082 75.327 190.494 73.1069 191.077 73.4816C191.111 73.4992 191.142 73.5248 191.166 73.5565C191.711 74.2404 191.711 80.7323 191.711 80.7323Z" fill="black"/>
<path id="Vector_49" opacity="0.1" d="M191.711 80.7324L189.278 87.9082L183.782 92.4001L175.07 89.6366L172.186 81.51L172.734 74.2499H172.862C173.347 76.5403 175.414 83.7723 181.999 84.2828C188.771 84.8028 190.694 75.9314 191.094 73.4864C191.128 73.504 191.159 73.5296 191.183 73.5613C191.711 74.2405 191.711 80.7324 191.711 80.7324Z" fill="black"/>
<path id="Vector_50" opacity="0.5" d="M172.713 74.2403C172.713 74.2403 174.125 84.3529 181.978 84.9572C189.831 85.5614 191.162 73.5471 191.162 73.5471C191.162 73.5471 202.545 77.6549 205.2 84.9806C207.854 92.3062 209.832 98.1846 209.832 98.1846C209.832 98.1846 208.981 99.824 208.024 99.9973C207.067 100.171 200.567 105.098 200.567 105.098C200.567 105.098 200.491 119.103 201.197 119.965C201.903 120.827 201.669 124.546 199.546 124.372C197.424 124.199 182.748 120.569 170.195 123.595C170.195 123.595 164.937 125.67 165.09 122.297C165.244 118.925 165.482 105.702 165.482 105.702C165.482 105.702 157.553 101.899 157.085 101.899C156.617 101.899 155.434 101.215 156.689 98.9621C157.944 96.7091 159.518 89.0228 159.518 89.0228C159.518 89.0228 162.666 77.9875 172.713 74.2403Z" fill="#FF748E"/>
<path id="Vector_51" opacity="0.1" d="M197.126 92.3999C197.126 92.3999 199.482 94.3016 198.934 95.7723C198.385 97.2431 197.126 92.3999 197.126 92.3999Z" fill="black"/>
<path id="Vector_52" opacity="0.1" d="M200.58 94.2267C200.36 95.07 200.36 95.9642 200.58 96.8075V94.2267Z" fill="black"/>
<path id="Vector_53" opacity="0.1" d="M202.15 98.9715C202.15 98.9715 202.464 101.313 201.524 101.562L202.15 98.9715Z" fill="black"/>
<path id="Vector_54" opacity="0.1" d="M170.123 91.7957C170.123 91.7957 165.728 96.0112 167.217 97.674L170.123 91.7957Z" fill="black"/>
<path id="Vector_55" opacity="0.1" d="M167.375 101.997C167.375 101.997 167.302 106.405 168.515 106.751L167.375 101.997Z" fill="black"/>
<path id="Vector_56" opacity="0.1" d="M180.013 116.775C180.013 116.775 182.99 114.532 183.782 114.616L180.013 116.775Z" fill="black"/>
<path id="Vector_57" opacity="0.1" d="M182.99 119.112C182.99 119.112 186.215 116.602 187.078 116.77L182.99 119.112Z" fill="black"/>
</g>
<g id="Group_7" opacity="0.5">
<path id="Vector_58" opacity="0.5" d="M253.008 159.324C253.008 159.324 278.693 160.664 291.463 159.839L291.182 163.549L268.586 166.828L261.899 164.561L253.008 159.324Z" fill="#FF748E"/>
<path id="Vector_59" opacity="0.1" d="M291.48 159.839L291.199 163.549L268.607 166.828L261.916 164.561L253.008 159.324C253.008 159.324 253.536 159.357 254.476 159.399C260.048 159.666 280.113 160.528 291.131 159.867L291.48 159.839Z" fill="black"/>
<path id="Vector_60" opacity="0.5" d="M300.37 212.59C295.41 215.868 278.195 212.693 278.195 212.693L273.422 193.957L268.088 213.016C260.512 216.004 244.883 211.676 244.883 211.676L250.966 170.458L252.017 164.776L253.008 159.324L262.647 162.518C262.647 162.518 265.544 164.682 277.616 164.064C289.689 163.446 291.463 159.849 291.463 159.849C291.994 160.017 292.501 162.083 293.011 164.65C293.751 168.397 294.504 173.202 295.393 174.79C296.908 177.46 300.37 212.59 300.37 212.59Z" fill="#FF748E"/>
<path id="Vector_61" opacity="0.1" d="M293.028 165.052C282.266 171.558 273.001 171.38 273.001 171.38C270.708 171.689 252.017 165.184 252.017 165.184L253.008 159.736L262.647 162.931C262.647 162.931 265.544 165.095 277.616 164.476C289.689 163.858 291.463 160.261 291.463 160.261C292.011 160.425 292.518 162.486 293.028 165.052Z" fill="black"/>
<path id="Vector_62" opacity="0.1" d="M291.48 159.839L291.199 163.549L268.607 166.828L261.916 164.561L253.008 159.324C253.008 159.324 253.536 159.357 254.476 159.399L262.643 162.106C262.643 162.106 265.54 164.27 277.612 163.652C287.094 163.183 290.225 160.842 291.131 159.863L291.48 159.839Z" fill="black"/>
<path id="Vector_63" opacity="0.5" d="M293.028 164.64C282.266 171.146 273.001 170.968 273.001 170.968C270.708 171.277 252.017 164.771 252.017 164.771L253.008 159.324L262.647 162.518C262.647 162.518 265.544 164.682 277.616 164.064C289.689 163.446 291.463 159.849 291.463 159.849C292.011 160.008 292.518 162.073 293.028 164.64Z" fill="#FF748E"/>
<path id="Vector_64" opacity="0.1" d="M274.826 169.985C275.369 169.985 275.809 169.5 275.809 168.903C275.809 168.305 275.369 167.821 274.826 167.821C274.283 167.821 273.843 168.305 273.843 168.903C273.843 169.5 274.283 169.985 274.826 169.985Z" fill="black"/>
<path id="Vector_65" opacity="0.5" d="M274.826 169.572C275.369 169.572 275.809 169.088 275.809 168.49C275.809 167.893 275.369 167.408 274.826 167.408C274.283 167.408 273.843 167.893 273.843 168.49C273.843 169.088 274.283 169.572 274.826 169.572Z" stroke="#FF748E" stroke-miterlimit="10"/>
<path id="Vector_66" opacity="0.1" d="M249.703 187.863C249.703 187.863 251.434 193.531 252.651 193.428C253.868 193.325 249.703 187.863 249.703 187.863Z" fill="black"/>
<path id="Vector_67" opacity="0.1" d="M248.58 193.428C248.58 193.428 249.656 196.828 250.779 197.395L248.58 193.428Z" fill="black"/>
<path id="Vector_68" opacity="0.1" d="M248.58 196.983C248.58 196.983 250.281 199.353 251.29 199.92L248.58 196.983Z" fill="black"/>
<path id="Vector_69" opacity="0.1" d="M294.27 175.554C294.27 175.554 295.861 178.181 294.27 178.748V175.554Z" fill="black"/>
<path id="Vector_70" opacity="0.1" d="M294.993 179.825C293.147 177.413 294.287 183.104 294.287 183.104C294.287 183.104 295.466 180.444 294.993 179.825Z" fill="black"/>
<path id="Vector_71" opacity="0.1" d="M295.925 182.762C295.925 182.762 293.117 187.348 293.679 187.863L295.925 182.762Z" fill="black"/>
<path id="Vector_72" opacity="0.1" d="M258.785 175.652C255.344 175.652 251.753 173.938 251.553 173.835L251.707 173.455C251.775 173.493 258.644 176.776 262.362 174.313C263.766 173.376 264.553 171.727 264.706 169.394L265.081 169.427C264.919 171.9 264.068 173.643 262.554 174.664C261.402 175.365 260.099 175.706 258.785 175.652Z" fill="black"/>
<path id="Vector_73" opacity="0.5" d="M258.785 175.24C255.344 175.24 251.753 173.526 251.553 173.423L251.707 173.048C251.775 173.081 258.644 176.364 262.362 173.9C263.766 172.964 264.553 171.315 264.706 168.982L265.081 169.015C264.919 171.488 264.068 173.231 262.554 174.252C261.402 174.952 260.099 175.294 258.785 175.24Z" fill="#FF748E"/>
<path id="Vector_74" opacity="0.1" d="M287.039 175.961C286.157 175.975 285.285 175.769 284.486 175.357C281.696 173.877 281.245 170.252 281.224 170.097L281.598 170.045C281.598 170.083 282.045 173.61 284.652 174.987C286.975 176.219 290.272 175.455 294.436 172.645L294.628 172.996C291.663 174.973 289.123 175.961 287.039 175.961Z" fill="black"/>
<path id="Vector_75" opacity="0.5" d="M287.039 175.549C286.157 175.563 285.285 175.356 284.486 174.945C281.696 173.465 281.245 169.839 281.224 169.685L281.598 169.633C281.598 169.671 282.045 173.198 284.652 174.575C286.975 175.807 290.272 175.043 294.436 172.233L294.628 172.584C291.663 174.561 289.123 175.549 287.039 175.549Z" fill="#FF748E"/>
</g>
<path id="Vector_76" d="M174.883 159.956C174.883 159.956 179.711 167.38 182.99 166.659C186.27 165.938 186.593 165.146 189.507 159.956L191.898 166.013L189.082 173.507L185.747 178.261L178.677 177.039L176.389 168.533L174.883 159.956Z" fill="#FF748E"/>
<path id="Vector_77" opacity="0.1" d="M191.898 166.008L189.082 173.502L185.747 178.256L178.677 177.034L176.389 168.528L174.883 159.956C174.883 159.956 175.308 160.603 175.972 161.493C177.592 163.624 180.676 167.165 182.99 166.645C186.223 165.933 186.585 165.151 189.392 160.153L189.507 159.942L191.898 166.008Z" fill="black"/>
<path id="Vector_78" opacity="0.1" d="M191.898 166.008L189.082 173.502L185.747 178.256L178.677 177.034L176.389 168.528L174.883 159.956C174.883 159.956 175.308 160.603 175.972 161.493C177.027 165.24 179.294 171.249 182.99 171.198C187.163 171.146 188.848 163.535 189.392 160.167L189.507 159.956L191.898 166.008Z" fill="black"/>
<path id="Vector_79" d="M172.33 159.736C172.33 159.736 170.693 159.521 171.543 161.755C172.394 163.989 173.964 171.338 173.181 172.851C172.398 174.364 172.79 178.472 169.387 179.268L170.365 183.516C170.365 183.516 170.561 192.884 170.169 194.257C169.778 195.629 169.71 203.189 169.842 203.981C169.974 204.772 169.91 209.962 169.387 210.182C168.864 210.402 168.536 212.917 170.238 213.348C171.939 213.779 179.2 213.999 180.51 214.43C181.821 214.861 191.111 214.43 191.111 214.43C191.111 214.43 195.037 213.854 196.02 213.494C197.002 213.133 197.198 212.271 196.871 210.613C196.543 208.955 195.037 196.922 195.365 195.409C195.692 193.896 195.76 179.123 195.76 179.123C195.76 179.123 193.208 178.186 193.208 175.446C193.208 172.706 192.225 165.357 194.254 160.748C194.254 160.748 192.617 159.511 192.357 159.731C192.098 159.952 189.626 159.16 189.626 159.16C189.626 159.16 188.35 171.699 183.012 171.769C177.673 171.839 175.295 159.16 175.295 159.16C175.295 159.16 175.342 158.008 172.33 159.736Z" fill="#FF748E"/>
<path id="Vector_80" opacity="0.1" d="M180.051 199.948C180.051 199.948 181.153 202.903 182.99 203.334C184.828 203.765 180.051 199.948 180.051 199.948Z" fill="black"/>
<path id="Vector_81" opacity="0.1" d="M178.35 202.252C178.35 202.252 181.906 205.423 181.753 206.074L178.35 202.252Z" fill="black"/>
<path id="Vector_82" opacity="0.1" d="M171.216 183.516C171.216 183.516 174.032 185.605 174.032 187.118L171.216 183.516Z" fill="black"/>
<path id="Vector_83" opacity="0.1" d="M173.113 190.074C173.113 190.074 172.33 187.048 171.807 186.402L173.113 190.074Z" fill="black"/>
<path id="Vector_84" opacity="0.1" d="M171.807 191.226C171.807 191.226 172.985 193.821 173.113 194.542L171.807 191.226Z" fill="black"/>
<path id="Vector_85" opacity="0.1" d="M194.646 185.966C194.646 185.966 190.983 187.193 191.307 188.706L194.646 185.966Z" fill="black"/>
<path id="Vector_86" opacity="0.1" d="M191.29 199.948C191.29 199.948 196.088 193.821 194.646 193.966C193.204 194.111 191.29 199.948 191.29 199.948Z" fill="black"/>
<g id="c4" opacity="0.1">
<path id="Vector_87" opacity="0.1" d="M193.204 175.446C193.204 174.181 192.995 171.933 192.97 169.427C192.944 172.303 193.204 174.964 193.204 176.383C193.204 179.062 195.641 180.013 195.756 180.055C195.756 179.47 195.756 179.118 195.756 179.118C195.756 179.118 193.204 178.186 193.204 175.446Z" fill="black"/>
<path id="Vector_88" opacity="0.1" d="M196.858 211.55C196.908 211.796 196.946 212.044 196.973 212.294C197.027 211.731 196.988 211.161 196.858 210.613C196.577 209.208 195.437 200.187 195.318 196.664C195.19 199.072 196.56 209.976 196.858 211.55Z" fill="black"/>
<path id="Vector_89" opacity="0.1" d="M169.782 202.205C169.782 199.634 169.914 196.088 170.169 195.179C170.378 194.449 170.42 191.46 170.416 188.819C170.416 191.189 170.352 193.596 170.169 194.243C169.88 195.264 169.77 199.657 169.782 202.205Z" fill="black"/>
<path id="Vector_90" opacity="0.1" d="M172.33 160.673C175.338 158.945 175.274 160.097 175.274 160.097C175.274 160.097 177.631 172.781 182.99 172.706C188.35 172.631 189.626 160.097 189.626 160.097C189.626 160.097 192.115 160.888 192.374 160.668C192.634 160.448 193.506 161.137 193.987 161.474C194.076 161.226 194.169 160.982 194.276 160.748C194.276 160.748 192.638 159.511 192.374 159.731C192.111 159.952 189.626 159.16 189.626 159.16C189.626 159.16 188.35 171.699 183.012 171.769C177.673 171.839 175.295 159.16 175.295 159.16C175.295 159.16 175.359 158.008 172.352 159.736C172.352 159.736 171.02 159.567 171.39 161.183C171.603 160.579 172.33 160.673 172.33 160.673Z" fill="black"/>
<path id="Vector_91" opacity="0.1" d="M169.382 211.119C169.808 210.946 169.923 207.737 169.897 205.966C169.876 207.746 169.727 210.037 169.382 210.182C169.038 210.327 168.872 211.119 169.004 211.882C169.072 211.479 169.208 211.184 169.382 211.119Z" fill="black"/>
<path id="Vector_92" opacity="0.1" d="M173.181 173.788C173.389 173.174 173.458 172.513 173.381 171.863C173.377 172.204 173.309 172.54 173.181 172.851C172.394 174.364 172.786 178.472 169.383 179.268L169.587 180.149C172.769 179.24 172.411 175.273 173.181 173.788Z" fill="black"/>
</g>
<g id="c6">
<path id="Vector_93" d="M192.085 247.846C190.477 251.068 174.155 247.846 174.155 247.846L174.198 247.522L174.521 245.026H191.719L192.047 247.518L192.085 247.846Z" fill="#FF748E"/>
<path id="Vector_94" opacity="0.1" d="M192.085 247.846C190.477 251.068 174.155 247.846 174.155 247.846L174.198 247.522C174.981 247.522 186.789 247.213 192.064 247.522L192.085 247.846Z" fill="black"/>
<path id="Vector_95" d="M174.155 247.846C174.155 247.846 171.229 248.651 166.69 262.188C162.151 275.724 160.543 293.214 160.543 293.214C160.543 293.214 157.991 297.973 168.885 298.291C168.885 298.291 168.009 301.434 174.155 300.952C180.302 300.47 179.417 300.474 179.417 300.474C179.417 300.474 183.369 297.734 185.126 298.217C186.883 298.699 187.98 298.863 189.882 300.633C191.783 302.404 197.862 301.683 197.934 300.315C197.983 299.643 197.983 298.968 197.934 298.296C197.934 298.296 207.229 298.943 205.472 291.528C203.715 284.113 202.252 271.944 202.252 271.944C202.252 271.944 197.496 248.173 192.077 247.85C186.657 247.527 174.155 247.846 174.155 247.846Z" fill="#FF748E"/>
<path id="Vector_96" opacity="0.1" d="M172.197 257.201L168.754 298.302L169.046 298.332L172.489 257.231L172.197 257.201Z" fill="black"/>
<path id="Vector_97" opacity="0.1" d="M179.412 257.171L179.261 300.445L179.554 300.446L179.705 257.172L179.412 257.171Z" fill="black"/>
<path id="Vector_98" opacity="0.1" d="M188.596 257.162L188.303 257.174L189.77 300.61L190.064 300.598L188.596 257.162Z" fill="black"/>
<path id="Vector_99" opacity="0.1" d="M197.794 298.296C197.283 273.542 193.455 256.595 193.408 256.445L193.693 256.366C193.731 256.534 197.581 273.513 198.087 298.31L197.794 298.296Z" fill="black"/>
<path id="Vector_100" opacity="0.1" d="M174.666 250.262C174.666 250.262 174.155 250.586 174.666 252.136V250.262Z" fill="black"/>
<path id="Vector_101" opacity="0.1" d="M176.133 250.262C176.133 250.262 174.742 251.227 176.133 252.843V250.262Z" fill="black"/>
<path id="Vector_102" opacity="0.1" d="M189.158 250.262C189.158 250.262 191.06 252.277 190.622 252.843L189.158 250.262Z" fill="black"/>
<path id="Vector_103" opacity="0.1" d="M190.69 249.78C190.69 249.78 190.988 252.197 192.085 252.843L190.69 249.78Z" fill="black"/>
</g>
<g id="Group_8" opacity="0.5">
<path id="Vector_104" opacity="0.5" d="M268.373 245.916C268.373 245.916 275.553 242.768 278.659 246.609C281.764 250.45 276.532 255.124 276.532 255.124L274.337 259.949L269.173 259.326L267.956 252.656L268.373 245.916Z" fill="#FF748E"/>
<path id="Vector_105" opacity="0.1" d="M276.532 255.101L274.337 259.925L269.173 259.321L267.956 252.656L268.381 245.916L268.496 245.869C269.407 245.499 275.553 243.138 278.493 246.389C278.554 246.451 278.612 246.517 278.667 246.586C281.764 250.408 276.532 255.101 276.532 255.101Z" fill="black"/>
<path id="Vector_106" opacity="0.1" d="M276.532 255.101L274.337 259.925L269.173 259.321L267.956 252.656L268.381 245.916L268.496 245.869C269.385 251.232 271.759 253.494 272.159 253.832L272.218 253.878L273.677 253.747C276.515 252.024 278.012 247.925 278.493 246.375C278.554 246.437 278.612 246.502 278.667 246.571C281.764 250.408 276.532 255.101 276.532 255.101Z" fill="black"/>
<path id="Vector_107" opacity="0.5" d="M289.072 273.471C289.072 273.471 287.49 295.664 287.919 298.343C288.349 301.022 287.005 301.224 287.005 301.224C287.005 301.224 281.279 302.629 280.199 301.692C279.118 300.755 277.276 300.573 277.276 300.573C277.276 300.573 273.022 301.645 271.125 300.844C269.228 300.043 266.072 300.376 266.072 300.376C266.072 300.376 263.638 301.987 262.966 301.65C262.294 301.313 261.443 301.448 259.495 300.849C257.547 300.249 256.45 299.706 257.483 296.02C258.517 292.333 257.611 280.666 257.547 279.256C257.483 277.846 256.879 274.432 256.024 270.357C255.169 266.281 257.483 267.139 257.483 267.139C262.907 264.057 260.652 258.019 259.801 255.34C258.951 252.661 260.286 252.529 260.954 252.529C261.622 252.529 264.183 250.117 264.183 250.117L265.221 249.091L268.386 245.963C269.173 251.822 271.725 254.281 272.15 254.647L272.21 254.698L273.669 254.562C277.2 252.422 278.659 246.6 278.659 246.6C279.084 247.396 280.033 248.305 281.092 249.148C282.478 250.227 283.923 251.213 285.418 252.099C287.97 253.775 286.09 255.452 286.09 255.452C282.985 267.115 287.366 267.63 287.366 267.63C290.595 268.155 289.072 273.471 289.072 273.471Z" fill="#FF748E"/>
<path id="Vector_108" opacity="0.1" d="M265.144 252.553C265.144 252.553 264.23 253.092 264.23 253.691L265.144 252.553Z" fill="black"/>
<path id="Vector_109" opacity="0.1" d="M265.693 253.691C265.693 253.691 264.476 255.096 264.689 255.504L265.693 253.691Z" fill="black"/>
<path id="Vector_110" opacity="0.1" d="M265.693 255.508C265.693 255.508 264.778 256.581 265.144 257.185L265.693 255.508Z" fill="black"/>
<path id="Vector_111" opacity="0.1" d="M271.784 255.452L267.956 259.523C267.816 254.998 265.829 251.377 264.851 249.85L268.016 246.721C268.79 252.628 271.363 255.087 271.784 255.452Z" fill="black"/>
<path id="Vector_112" opacity="0.5" d="M272.15 254.647L268.322 258.722C268.186 254.192 266.195 250.576 265.221 249.045L268.386 245.916C269.173 251.822 271.725 254.281 272.15 254.647Z" fill="#FF748E"/>
<path id="Vector_113" opacity="0.1" d="M281.458 249.939C279.926 252.572 277.081 259.523 277.081 259.523L274.035 255.368C277.565 253.223 279.024 247.405 279.024 247.405C279.45 248.183 280.398 249.091 281.458 249.939Z" fill="black"/>
<path id="Vector_114" opacity="0.5" d="M281.083 249.134C279.556 251.771 276.706 258.722 276.706 258.722L273.669 254.572C277.2 252.431 278.659 246.609 278.659 246.609C279.084 247.382 280.033 248.291 281.083 249.134Z" fill="#FF748E"/>
<path id="Vector_115" opacity="0.1" d="M278.846 292.109C278.846 292.109 278.195 298.198 277.821 298.544L278.846 292.109Z" fill="black"/>
<path id="Vector_116" opacity="0.1" d="M284.201 293.181C284.201 293.181 284.933 297.537 284.627 298.544L284.201 293.181Z" fill="black"/>
<path id="Vector_117" opacity="0.1" d="M268.615 293.448C268.615 293.448 267.948 297.537 268.615 298.006V293.448Z" fill="black"/>
<path id="Vector_118" opacity="0.1" d="M264.664 292.844C264.664 292.844 264.111 297.673 264.238 298.544L264.664 292.844Z" fill="black"/>
<path id="Vector_119" opacity="0.1" d="M285.116 269.312C285.116 269.312 283.414 270.787 283.534 271.186L285.116 269.312Z" fill="black"/>
<path id="Vector_120" opacity="0.1" d="M286.333 270.253C286.333 270.253 283.074 273.27 284.703 272.933C286.333 272.595 286.333 270.253 286.333 270.253Z" fill="black"/>
</g>
<path id="Vector_121" d="M105.826 183.844L105.848 183.812L105.809 183.779L105.58 183.61L105.626 183.648C105.462 183.543 105.267 183.51 105.081 183.555C104.896 183.6 104.732 183.72 104.622 183.891L104.529 184.036L99.3605 192.224L98.4587 193.681C95.732 192.777 91.3038 196.58 89.062 198.763C88.9216 198.898 88.7898 199.025 88.6707 199.147C88.492 198.706 88.3857 198.425 88.3857 198.425C88.2751 199.765 83.9787 201.774 82.9748 202.505C82.5188 202.809 82.0075 202.997 81.4775 203.058C81.6221 197.966 78.0447 192.608 78.0447 192.608L69.3031 180.359C68.9815 178.144 69.2937 175.874 70.1964 173.863C70.2687 173.704 70.341 173.544 70.4218 173.394H70.4644C70.1336 174.424 69.9486 175.503 69.9156 176.594C69.9369 177.423 70.6345 181.441 71.6171 181.278C71.7146 181.288 71.8129 181.27 71.9014 181.224C71.9899 181.177 72.0652 181.105 72.1191 181.015C72.9018 180.013 72.9699 178.308 72.9316 176.729C72.918 177.193 72.8711 177.655 72.7912 178.111C72.855 176.8 72.7189 175.413 72.7189 174.425C72.7189 174.031 72.7189 173.643 72.7444 173.249H72.8508C72.8508 173.399 72.8508 173.558 72.8508 173.718C72.8508 173.554 72.8508 173.394 72.8508 173.249H72.9613C74.9221 172.854 76.7593 171.916 78.2999 170.523C78.6802 170.506 79.0537 170.406 79.3985 170.228C79.7432 170.051 80.0523 169.799 80.3077 169.488C80.4009 169.831 80.4152 170.193 80.3491 170.543C80.283 170.893 80.1386 171.22 79.9291 171.493C81.0989 171.432 82.09 170.43 82.5409 169.254C82.9273 168.053 83.0412 166.767 82.8727 165.507C82.7046 164.246 82.6207 162.973 82.6218 161.699C82.7024 161.011 82.7365 160.317 82.7238 159.624C82.705 159.412 82.6709 159.202 82.6218 158.996H82.6558C82.7679 158.999 82.8793 158.977 82.9837 158.932C83.0881 158.887 83.1834 158.819 83.2641 158.734C83.749 158.322 83.9064 157.516 84.0298 156.898C84.3655 155.475 84.5173 154.007 84.4807 152.537C84.4551 152.982 84.4041 153.432 84.3445 153.877C84.4509 152.19 84.2382 150.551 83.2258 149.328C82.5282 148.49 81.554 147.998 80.6182 147.506C80.2835 147.375 79.9889 147.143 79.7674 146.837C79.602 146.476 79.5119 146.079 79.5037 145.675C79.1762 143.211 77.0705 141.497 74.9734 140.523C72.2765 139.23 69.0181 138.677 66.4445 140.213C65.1684 140.958 64.19 142.125 63.0415 143.075C61.6037 144.279 59.9447 145.122 58.4091 146.171C56.8734 147.221 55.4314 148.551 54.6785 150.359C53.5512 153.169 54.3977 156.354 54.5381 159.404C54.7635 164.205 52.9684 169.24 49.4123 172.05C48.9861 172.338 48.6053 172.7 48.285 173.123C48.1287 173.337 48.0359 173.598 48.0192 173.872C48.0025 174.146 48.0626 174.419 48.1914 174.654C48.3743 174.917 48.6636 175.067 48.8635 175.315C49.2676 175.821 49.1868 176.594 49.0294 177.24C48.5129 179.355 47.4836 181.275 46.0517 182.795C46.1156 183.292 46.6728 183.488 47.128 183.563C48.3322 183.758 49.5478 183.855 50.765 183.854H51.2882C51.2329 184.008 51.1733 184.172 51.1138 184.345C50.4544 186.257 49.5994 189.198 49.8844 190.997C50.3098 193.835 51.671 206.814 50.9989 209.091C50.3268 211.367 52.0794 227.873 52.0794 227.873C52.0794 227.873 52.3134 229.147 52.7175 231.049C51.6668 233.775 50.4672 236.801 49.8674 238.014C48.6593 240.445 49.2549 252.857 53.4193 258.375C53.4193 258.375 55.1209 261.054 54.6955 262.024C54.2701 262.993 54.7721 264.703 54.7721 264.703L55.4314 280.764C55.4173 282.406 55.315 284.045 55.1251 285.673C53.347 288.095 50.6076 291.626 49.3187 292.202C47.3236 293.097 32.4438 312.971 32.4438 312.971C32.4438 312.971 32.5629 313.21 32.7969 313.599L32.3715 314.132L29.5172 317.777L29.2917 318.062C28.7558 317.95 25.1868 317.238 22.358 317.013H22.0773V316.957C21.0859 316.832 20.0834 316.862 19.0996 317.046C18.9135 317.084 18.7418 317.182 18.6062 317.327C17.6405 318.629 17.1216 339.07 17.1216 339.07C17.1216 339.07 18.151 349.304 21.3754 349.876C21.5398 349.938 21.7119 349.973 21.8858 349.979H22.0262C24.3233 349.791 25.3782 348.344 25.8547 347.351C25.9956 347.054 26.1027 346.74 26.1737 346.414C26.1737 346.414 25.7994 344.592 26.8033 342.077C27.8072 339.562 29.6831 335.135 29.6831 335.135C29.6831 335.135 33.0861 331.196 32.4778 329.285C32.5714 329.13 32.682 328.962 32.8011 328.77C34.0773 326.765 36.6636 322.807 38.7565 320.165C38.8926 319.987 39.0287 319.823 39.1818 319.66C39.9432 320.013 40.74 320.267 41.5555 320.414C41.5555 320.414 44.7543 319.037 45.9411 315.955C46.4474 314.643 48.4339 312.32 50.548 310.086L50.48 310.68L50.4076 330.231C51.0951 330.751 51.8275 331.195 52.5941 331.557V332.025C52.6091 334.811 52.4556 337.595 52.1347 340.358L52.0709 340.793C51.8072 340.587 51.5774 340.517 51.4328 340.676C50.7777 341.407 50.3694 346.072 50.3311 348.222C50.3311 348.292 50.3311 348.363 50.3311 348.438C50.2247 350.583 49.1145 353.702 52.458 353.862C54.9592 353.979 65.7426 354.157 71.5108 354.25C74.6184 354.315 77.6417 353.135 80.0184 350.929C81.8518 349.201 82.9621 347.145 80.4651 345.632C80.3119 345.538 80.1503 345.449 79.9716 345.36L74.4417 344.423L64.994 339.112C64.994 339.112 64.9387 335.899 63.8029 336.433C63.4655 336.514 63.1422 336.654 62.8458 336.85C62.7905 336.732 62.7309 336.606 62.6756 336.475C61.9061 334.796 61.5068 332.941 61.5101 331.06C61.5101 330.892 61.5101 330.718 61.5314 330.545C61.808 330.267 62.0694 329.972 62.3141 329.66C62.3141 329.66 62.2417 322.357 62.9862 320.98C63.7306 319.603 66.0361 305.645 66.0361 305.645C66.0361 305.645 66.1085 303.05 67.5973 301.509C69.0861 299.968 68.5629 295.505 68.5629 295.505C68.5629 295.505 70.6473 294.287 71.3151 290.315C71.983 286.343 74.1439 277.668 74.1439 277.668C74.1439 277.668 78.6062 264.848 78.3126 256.74C78.0191 248.632 78.738 244.408 78.738 244.408L79.6654 225.559V225.269C80.0354 225.578 80.2864 225.831 80.2864 225.831C80.2864 225.831 80.2864 225.756 80.2864 225.625C80.4225 225.751 80.4991 225.831 80.4991 225.831C80.4991 225.831 80.9755 217.278 80.8139 213.887C83.4172 212.913 87.3818 211.311 87.62 210.496C87.9518 209.283 92.4183 205.447 92.4183 205.447C92.3217 205.429 92.2291 205.391 92.146 205.334C92.2864 205.264 92.431 205.18 92.5714 205.091C95.498 203.367 100.934 198.327 100.02 195.254L105.975 185.844C106.162 185.542 106.249 185.179 106.222 184.815C106.195 184.451 106.055 184.109 105.826 183.844Z" fill="url(#paint1_linear)"/>
<path id="Vector_122" d="M91.9716 206.571C91.537 206.871 91.0527 207.073 90.5466 207.166C88.6877 207.226 87.1436 201.685 87.1436 201.685C87.1436 201.685 87.671 201.095 88.5133 200.28C91.006 197.84 96.2339 193.334 98.6841 195.854C101.449 198.669 95.1918 204.664 91.9716 206.571Z" fill="#ECB4B6"/>
<path id="Vector_123" d="M63.7136 338.718L56.8522 346.873C56.8522 346.873 50.5055 346.953 51.7476 343.098C51.9958 342.262 52.1724 341.403 52.2751 340.531C52.5878 337.794 52.737 335.037 52.7217 332.278C52.7217 330.47 52.6962 329.201 52.6962 329.201C52.6962 329.201 62.6884 324.381 61.6675 329.402C61.5405 330.03 61.4721 330.67 61.4633 331.313C61.4593 333.174 61.8497 335.011 62.6034 336.676C62.9118 337.395 63.2836 338.079 63.7136 338.718Z" fill="#ECB4B6"/>
<path id="Vector_124" opacity="0.1" d="M63.7136 338.718L56.8522 346.873C56.8522 346.873 50.5055 346.953 51.7476 343.098C51.9958 342.262 52.1724 341.403 52.2751 340.531C53.1812 341.304 54.4828 343.58 54.4828 343.58C54.4828 343.58 58.86 344.986 60.0638 340.77C60.7359 338.428 61.7994 337.243 62.6161 336.676C62.9205 337.395 63.2881 338.079 63.7136 338.718Z" fill="black"/>
<path id="Vector_125" d="M79.6313 351C77.305 353.182 74.3323 354.349 71.2768 354.278C65.6193 354.189 55.0486 354.007 52.5941 353.894C49.3102 353.735 50.3991 350.648 50.5055 348.522C50.5055 348.447 50.5055 348.381 50.5055 348.311C50.5438 346.18 50.9309 341.562 51.586 340.84C52.241 340.119 54.4828 344.053 54.4828 344.053C54.4828 344.053 58.86 345.459 60.0638 341.243C61.2676 337.028 63.7136 336.62 63.7136 336.62C64.8238 336.091 64.8791 339.271 64.8791 339.271L74.1439 344.531L79.5803 345.468C79.7547 345.557 79.9121 345.646 80.061 345.735C82.5197 347.253 81.4307 349.285 79.6313 351Z" fill="#C17174"/>
<path id="Vector_126" opacity="0.25" d="M62.514 342.892C62.7348 342.892 62.9138 342.695 62.9138 342.452C62.9138 342.208 62.7348 342.011 62.514 342.011C62.2932 342.011 62.1141 342.208 62.1141 342.452C62.1141 342.695 62.2932 342.892 62.514 342.892Z" fill="white"/>
<path id="Vector_127" opacity="0.25" d="M66.2744 344.943C66.4952 344.943 66.6742 344.746 66.6742 344.503C66.6742 344.26 66.4952 344.063 66.2744 344.063C66.0535 344.063 65.8745 344.26 65.8745 344.503C65.8745 344.746 66.0535 344.943 66.2744 344.943Z" fill="white"/>
<path id="Vector_128" opacity="0.25" d="M68.2056 345.894C68.4264 345.894 68.6054 345.697 68.6054 345.454C68.6054 345.211 68.4264 345.014 68.2056 345.014C67.9847 345.014 67.8057 345.211 67.8057 345.454C67.8057 345.697 67.9847 345.894 68.2056 345.894Z" fill="white"/>
<path id="Vector_129" opacity="0.25" d="M72.2169 347.59C72.4378 347.59 72.6168 347.393 72.6168 347.15C72.6168 346.906 72.4378 346.709 72.2169 346.709C71.9961 346.709 71.8171 346.906 71.8171 347.15C71.8171 347.393 71.9961 347.59 72.2169 347.59Z" fill="white"/>
<path id="Vector_130" opacity="0.25" d="M70.1751 346.868C70.396 346.868 70.575 346.671 70.575 346.428C70.575 346.185 70.396 345.988 70.1751 345.988C69.9543 345.988 69.7753 346.185 69.7753 346.428C69.7753 346.671 69.9543 346.868 70.1751 346.868Z" fill="white"/>
<path id="Vector_131" d="M79.6313 351C77.305 353.182 74.3323 354.349 71.2768 354.278C65.6193 354.189 55.0486 354.007 52.5941 353.894C49.3102 353.735 50.3991 350.648 50.5055 348.522L71.1237 349.927C71.1237 349.927 79.5675 348.522 80.0567 345.749C82.5197 347.253 81.4307 349.285 79.6313 351Z" fill="#C17174"/>
<path id="Vector_132" opacity="0.25" d="M79.6313 351C77.305 353.182 74.3323 354.349 71.2768 354.278C65.6193 354.189 55.0486 354.007 52.5941 353.894C49.3102 353.735 50.3991 350.648 50.5055 348.522L71.1237 349.927C71.1237 349.927 79.5675 348.522 80.0567 345.749C82.5197 347.253 81.4307 349.285 79.6313 351Z" fill="white"/>
<path id="Vector_133" d="M41.2492 318.236C40.4905 318.917 39.7978 319.683 39.1819 320.521C37.1358 323.135 34.6048 327.079 33.3499 329.037C32.8649 329.805 32.5714 330.287 32.5714 330.287L29.832 329.842C29.832 329.842 26.8798 324.863 26.9181 324.746C26.9564 324.629 29.2577 319.28 29.2577 319.28L30.1468 318.133L32.95 314.526L34.2262 312.896C34.2262 312.896 43.7207 316.268 41.2492 318.236Z" fill="#ECB4B6"/>
<path id="Vector_134" opacity="0.1" d="M33.3499 329.046C32.865 329.814 32.5714 330.297 32.5714 330.297L29.832 329.852C29.832 329.852 26.8798 324.873 26.9181 324.756C26.9564 324.639 29.2577 319.28 29.2577 319.28L30.1468 318.133L30.436 318.193H31.1337C28.6877 321.004 31.3123 327.187 31.3123 327.187C31.3123 327.187 32.4438 327.304 33.3499 329.046Z" fill="black"/>
<path id="Vector_135" d="M30.2914 335.341C30.2914 335.341 28.4665 339.679 27.4796 342.17C26.4927 344.662 26.8585 346.466 26.8585 346.466C26.7891 346.79 26.6848 347.105 26.548 347.402C26.1982 348.168 25.666 348.815 25.0081 349.274C24.3503 349.733 23.5916 349.986 22.8132 350.007H22.6345C19.308 349.913 18.2531 339.28 18.2531 339.28C18.2531 339.28 18.7635 319.041 19.7121 317.734C19.8426 317.589 20.0103 317.491 20.1928 317.453C21.1608 317.269 22.1479 317.239 23.1237 317.364C26.1311 317.603 29.9979 318.418 29.9979 318.418H30.6912C28.2453 321.229 30.8699 327.416 30.8699 327.416C30.8699 327.416 32.0397 327.533 32.95 329.341C33.8603 331.149 30.2914 335.341 30.2914 335.341Z" fill="#C17174"/>
<path id="Vector_136" opacity="0.25" d="M26.2758 329.758C26.4966 329.758 26.6756 329.561 26.6756 329.318C26.6756 329.075 26.4966 328.878 26.2758 328.878C26.0549 328.878 25.8759 329.075 25.8759 329.318C25.8759 329.561 26.0549 329.758 26.2758 329.758Z" fill="white"/>
<path id="Vector_137" opacity="0.25" d="M26.0759 333.266C26.2967 333.266 26.4757 333.069 26.4757 332.826C26.4757 332.583 26.2967 332.386 26.0759 332.386C25.855 332.386 25.676 332.583 25.676 332.826C25.676 333.069 25.855 333.266 26.0759 333.266Z" fill="white"/>
<path id="Vector_138" d="M26.28 347.313C25.9303 348.079 25.398 348.726 24.7401 349.185C24.0823 349.644 23.3236 349.897 22.5452 349.918H22.3708C19.0443 349.824 17.9851 339.191 17.9851 339.191C17.9851 339.191 18.4956 318.952 19.4442 317.645C19.5746 317.5 19.7423 317.402 19.9248 317.364C20.8928 317.18 21.88 317.15 22.8557 317.275C22.8004 320.915 22.643 332.414 22.8557 333.557C23.0684 334.7 24.9528 344.264 26.28 347.313Z" fill="#C17174"/>
<path id="Vector_139" opacity="0.25" d="M26.28 347.313C25.9303 348.079 25.398 348.726 24.7401 349.185C24.0823 349.644 23.3236 349.897 22.5452 349.918H22.3708C19.0443 349.824 17.9851 339.191 17.9851 339.191C17.9851 339.191 18.4956 318.952 19.4442 317.645C19.5746 317.5 19.7423 317.402 19.9248 317.364C20.8928 317.18 21.88 317.15 22.8557 317.275C22.8004 320.915 22.643 332.414 22.8557 333.557C23.0684 334.7 24.9528 344.264 26.28 347.313Z" fill="white"/>
<path id="Vector_140" d="M22.3665 349.927C19.04 349.833 17.9808 339.201 17.9808 339.201C17.9808 339.201 18.4913 318.962 19.4399 317.655C19.5703 317.509 19.7381 317.411 19.9206 317.374C20.6182 318.517 21.2307 321.046 20.6778 326.611C19.6398 337.154 20.8904 337.819 20.8904 337.819C20.8904 337.819 22.4516 346.78 22.3665 349.927Z" fill="#C17174"/>
<path id="Vector_141" opacity="0.1" d="M22.3665 349.927C19.04 349.833 17.9808 339.201 17.9808 339.201C17.9808 339.201 18.4913 318.962 19.4399 317.655C19.5703 317.509 19.7381 317.411 19.9206 317.374C20.6182 318.517 21.2307 321.046 20.6778 326.611C19.6398 337.154 20.8904 337.819 20.8904 337.819C20.8904 337.819 22.4516 346.78 22.3665 349.927Z" fill="black"/>
<path id="Vector_142" opacity="0.1" d="M91.9716 206.571C91.537 206.871 91.0527 207.073 90.5466 207.166C88.6877 207.226 87.1436 201.685 87.1436 201.685C87.1436 201.685 87.671 201.095 88.5133 200.28C89.1216 201.779 90.7976 205.821 91.9716 206.571Z" fill="black"/>
<path id="Vector_143" d="M80.044 204.575C80.044 204.575 81.5753 204.697 82.5579 203.976C83.5406 203.255 87.7561 201.264 87.8667 199.938C87.8667 199.938 90.3807 206.683 91.8057 206.927C91.8057 206.927 87.4286 210.721 87.101 211.924C86.7735 213.128 78.2361 216.084 78.2361 216.084L80.044 204.575Z" fill="#FF748E"/>
<path id="Vector_144" opacity="0.1" d="M80.044 204.575C80.044 204.575 81.5753 204.697 82.5579 203.976C83.5406 203.255 87.7561 201.264 87.8667 199.938C87.8667 199.938 90.3807 206.683 91.8057 206.927C91.8057 206.927 87.4286 210.721 87.101 211.924C86.7735 213.128 78.2361 216.084 78.2361 216.084L80.044 204.575Z" fill="black"/>
<path id="Vector_145" opacity="0.1" d="M41.2492 318.236C40.4905 318.917 39.7977 319.683 39.1818 320.521C35.8809 318.999 33.754 315.889 32.9457 314.526L34.2219 312.896C34.2219 312.896 43.7206 316.268 41.2492 318.236Z" fill="black"/>
<path id="Vector_146" d="M56.8607 284.08C56.8607 284.08 51.5094 291.954 49.5527 292.839C47.5959 293.725 33.0096 313.402 33.0096 313.402C33.0096 313.402 36.1446 319.749 41.9086 320.788C41.9086 320.788 45.0436 319.425 46.2134 316.371C47.3832 313.317 56.5714 304.69 56.5714 304.69L56.8607 284.08Z" fill="#5E5A6B"/>
<path id="Vector_147" opacity="0.1" d="M56.8607 284.08C56.8607 284.08 51.5094 291.954 49.5527 292.839C47.5959 293.725 33.0096 313.402 33.0096 313.402C33.0096 313.402 36.1446 319.749 41.9086 320.788C41.9086 320.788 45.0436 319.425 46.2134 316.371C47.3832 313.317 56.5714 304.69 56.5714 304.69L56.8607 284.08Z" fill="black"/>
<path id="Vector_148" opacity="0.1" d="M40.6494 310.427C42.2685 310.615 43.9009 310.615 45.52 310.427C48.3999 310.123 46.2304 312.053 40.6494 310.427Z" fill="black"/>
<path id="Vector_149" opacity="0.1" d="M39.335 312.474C39.335 312.474 43.1634 314.882 44.6437 313.678C46.1241 312.474 43.2187 314.84 39.335 312.474Z" fill="black"/>
<path id="Vector_150" opacity="0.1" d="M61.676 329.402C61.549 330.03 61.4806 330.67 61.4718 331.313C58.5154 334.269 54.955 333.355 52.7302 332.278C52.7302 330.47 52.7047 329.201 52.7047 329.201C52.7047 329.201 62.6969 324.362 61.676 329.402Z" fill="black"/>
<path id="Vector_151" d="M79.4017 224.618L79.2953 226.838L78.385 245.504C78.385 245.504 77.6533 249.682 77.9596 257.71C78.2659 265.738 73.8589 278.46 73.8589 278.46C73.8589 278.46 71.732 287.055 71.0854 290.989C70.4389 294.924 68.3885 296.142 68.3885 296.142C68.3885 296.142 68.899 300.558 67.4399 302.085C65.9809 303.612 65.9086 306.179 65.9086 306.179C65.9086 306.179 63.6455 319.997 62.9309 321.364C62.2163 322.732 62.2716 329.96 62.2716 329.96C57.5328 336.142 50.6034 330.522 50.6034 330.522L50.6757 311.163C50.6757 311.163 52.6452 293.331 54.1042 290.839C55.5633 288.347 55.5633 281.523 55.5633 281.523L54.9125 265.598C54.9125 265.598 54.3935 263.911 54.8402 262.947C55.2868 261.982 53.5938 259.335 53.5938 259.335C49.5059 253.869 48.9146 241.578 50.1099 239.194C51.3052 236.81 54.8402 227.147 54.8402 227.147L59.7193 224.014L68.5374 224.299L79.4017 224.618Z" fill="#5E5A6B"/>
<path id="Vector_152" opacity="0.1" d="M58.6516 319.28C58.6516 319.28 59.8043 323.678 60.7317 324.161C61.659 324.643 58.6516 319.28 58.6516 319.28Z" fill="black"/>
<path id="Vector_153" opacity="0.1" d="M60.2382 304.643C60.2382 304.643 63.2159 307.238 64.492 307.233C65.7682 307.228 60.2382 304.643 60.2382 304.643Z" fill="black"/>
<path id="Vector_154" d="M78.2361 195.901V201.203L75.0585 199.695L71.8894 198.191L64.9897 190.72C64.9897 190.72 59.5321 186.819 56.614 183.263C54.9465 181.235 54.1085 179.32 55.576 178.308C56.2873 177.795 56.9301 177.175 57.486 176.467C58.9526 174.563 60.2277 172.49 61.2889 170.284C61.3357 170.195 61.3825 170.106 61.425 170.017C62.8458 167.146 63.7859 164.696 63.7859 164.696C63.7859 164.696 67.7845 166.102 70.3538 168.106C70.5622 168.266 70.7579 168.429 70.9451 168.598C72.3786 169.891 73.0932 171.408 71.7703 172.889C71.4305 173.275 71.1163 173.689 70.8302 174.125C70.6166 174.449 70.4206 174.787 70.2432 175.137C70.1666 175.296 70.09 175.451 70.022 175.605C69.1368 177.599 68.8309 179.844 69.1457 182.036L78.2361 195.901Z" fill="#ECB4B6"/>
<path id="Vector_155" d="M77.6533 158.083C77.8192 158.401 78.0489 158.673 78.2021 158.996C78.4601 159.709 78.5437 160.484 78.4445 161.244C78.3616 162.445 78.4332 163.653 78.6572 164.832C78.8827 165.891 79.3038 166.912 79.3378 167.999C79.3846 169.53 78.6615 170.949 77.9639 172.275C78.3429 172.262 78.7156 172.165 79.0593 171.988C79.403 171.812 79.7105 171.561 79.9632 171.249C80.0555 171.587 80.0705 171.945 80.0066 172.291C79.9428 172.636 79.8022 172.959 79.5973 173.231C80.7416 173.17 81.7242 172.177 82.1496 171.015C82.5378 169.815 82.6503 168.528 82.4771 167.268C82.3105 166.019 82.2281 164.759 82.2304 163.497C82.3095 162.816 82.3423 162.128 82.3283 161.441C82.2219 160.078 81.4775 158.893 80.7288 157.788L79.2485 155.549C79.1456 155.366 78.9983 155.218 78.8231 155.122C77.4236 154.467 77.262 157.305 77.6533 158.083Z" fill="#464353"/>
<path id="Vector_156" opacity="0.1" d="M71.7958 172.889C71.456 173.275 71.1418 173.689 70.8557 174.125C70.6421 174.449 70.4461 174.787 70.2687 175.137C70.1921 175.296 70.1156 175.451 70.0475 175.605C68.3611 175.501 66.7164 174.989 65.2304 174.105C63.7444 173.221 62.4538 171.987 61.4505 170.49C61.4037 170.42 61.357 170.35 61.3144 170.275C61.3612 170.186 61.408 170.097 61.4505 170.008C62.8713 167.137 63.8114 164.687 63.8114 164.687C63.8114 164.687 67.81 166.092 70.3793 168.097C70.5877 168.256 70.7834 168.42 70.9706 168.589C72.3871 169.891 73.1017 171.39 71.7958 172.889Z" fill="black"/>
<path id="Vector_157" d="M82.1666 162.504C82.1672 165.462 81.2267 168.326 79.5084 170.598C77.7901 172.871 75.4027 174.409 72.7614 174.945C72.0737 175.082 71.3761 175.151 70.6771 175.151H70.626C70.5027 175.151 70.375 175.151 70.2517 175.151C68.0001 175.059 65.8228 174.24 63.9908 172.796C62.1589 171.351 60.7532 169.346 59.9487 167.028C59.1443 164.711 58.9767 162.184 59.4667 159.762C59.9568 157.341 61.0828 155.132 62.7047 153.409C64.3266 151.687 66.3727 150.529 68.5883 150.077C70.8038 149.626 73.0909 149.902 75.1649 150.872C77.2389 151.841 79.0082 153.461 80.2524 155.529C81.4966 157.598 82.1608 160.023 82.1623 162.504H82.1666Z" fill="#ECB4B6"/>
<path id="Vector_158" opacity="0.1" d="M72.1829 193.774C72.1829 193.774 77.9681 197.367 76.4878 194.336L68.9372 182.046L77.5087 194.172C77.5087 194.172 82.9791 202.449 79.9886 208.149C79.9886 208.149 79.5633 212.889 80.061 214.013C80.5586 215.138 79.9163 227.128 79.9163 227.128C79.9163 227.128 77.8702 225.039 76.777 225.438C75.6838 225.836 67.9674 226.548 67.9674 226.548L72.1829 193.774Z" fill="black"/>
<path id="Vector_159" opacity="0.1" d="M79.4016 224.618L79.2953 226.838C78.6019 226.285 77.6363 225.667 76.994 225.901C75.9007 226.304 68.1716 227.03 68.1716 227.03L68.5246 224.262L79.4016 224.618Z" fill="black"/>
<path id="Vector_160" d="M72.3999 193.774C72.3999 193.774 78.1893 197.367 76.7047 194.336L69.1542 182.046L77.7256 194.172C77.7256 194.172 83.196 202.449 80.2056 208.149C80.2056 208.149 79.7802 212.889 80.2779 214.013C80.7756 215.138 80.1333 227.128 80.1333 227.128C80.1333 227.128 78.0915 225.039 76.9982 225.438C75.905 225.836 68.1716 226.566 68.1716 226.566L72.3999 193.774Z" fill="#464353"/>
<path id="Vector_161" opacity="0.1" d="M75.4924 199.934C75.1563 203.798 73.7143 208.393 73.7143 208.393C73.7143 208.393 72.6934 219.798 71.3705 223.189C70.0475 226.58 70.6388 231.222 69.9114 239.817C69.6477 242.913 68.7416 245.04 67.5208 246.473C65.513 248.815 62.6459 249.326 60.3829 249.18L59.8469 249.134C56.1971 248.735 52.6962 229.377 52.6962 229.377C52.6962 229.377 51.0202 212.908 51.6753 210.641C52.3304 208.374 51.0287 195.554 50.5906 192.744C50.3098 190.959 51.1478 188.06 51.7944 186.158C52.173 185.062 52.4835 184.285 52.4835 184.285C52.4835 184.285 53.7257 179.947 55.7675 177.699C56.049 177.381 56.3857 177.128 56.7577 176.956C57.1296 176.784 57.5292 176.695 57.9327 176.697C58.8926 176.74 59.8249 177.063 60.6338 177.633C60.6666 177.654 60.6979 177.678 60.7274 177.704C60.7274 177.704 74.0078 192.645 75.2457 196.097C75.5902 197.067 75.6243 198.444 75.4924 199.934Z" fill="black"/>
<path id="Vector_162" d="M75.0585 199.695C74.7182 203.554 73.2761 208.149 73.2761 208.149C73.2761 208.149 72.2552 219.559 70.9408 222.932C69.6264 226.304 70.2134 230.965 69.4817 239.56C69.218 242.651 68.3119 244.778 67.0911 246.215C65.0833 248.557 62.2162 249.063 59.9532 248.923L59.4172 248.876C55.7674 248.473 52.2666 229.114 52.2666 229.114C52.2666 229.114 50.5906 212.65 51.2456 210.402C51.9007 208.154 50.5906 195.301 50.1524 192.486C49.8717 190.706 50.7097 187.802 51.3562 185.901C51.7348 184.805 52.0454 184.05 52.0454 184.05C52.0454 184.05 53.2875 179.713 55.3293 177.465C55.61 177.146 55.9467 176.893 56.3189 176.721C56.6911 176.55 57.091 176.463 57.4945 176.467C58.4552 176.505 59.3886 176.829 60.1957 177.404L60.2892 177.469C60.2892 177.469 73.5696 192.411 74.8075 195.863C75.1521 196.823 75.1989 198.205 75.0585 199.695Z" fill="#FF748E"/>
<path id="Vector_163" opacity="0.1" d="M60.1829 258.497C60.1829 258.497 57.1712 261.448 56.1333 261.307C55.0954 261.167 60.1829 258.497 60.1829 258.497Z" fill="black"/>
<path id="Vector_164" opacity="0.1" d="M60.9826 261.331C60.9826 261.331 57.8093 262.951 56.8607 263.204C55.9121 263.457 59.7575 260.914 60.9826 261.331Z" fill="black"/>
<path id="Vector_165" opacity="0.1" d="M73.2591 216.988C73.2591 216.988 77.9638 217.049 78.6742 218.674C79.3846 220.299 74.7735 216.323 73.2591 216.988Z" fill="black"/>
<path id="Vector_166" opacity="0.1" d="M72.5998 219.817C72.5998 219.817 76.2113 220.66 77.3045 221.625C78.3977 222.59 72.5998 219.817 72.5998 219.817Z" fill="black"/>
<path id="Vector_167" opacity="0.1" d="M64.5296 209.999C64.5296 209.999 64.1042 226.323 62.4793 228.435C60.8543 230.548 64.5296 209.999 64.5296 209.999Z" fill="black"/>
<path id="Vector_168" opacity="0.1" d="M62.48 259.145C62.48 259.145 59.4598 273.544 65.5172 274.434C71.5746 275.324 69.7029 258.04 69.7029 258.04L62.48 259.145Z" fill="black"/>
<path id="Vector_169" d="M62.2588 255.907C62.2588 255.907 59.2556 270.305 65.3003 271.204C71.3449 272.104 69.4818 254.811 69.4818 254.811L62.2588 255.907Z" fill="#ECB4B6"/>
<path id="Vector_170" opacity="0.1" d="M82.0943 161.108C81.9258 160.833 81.7833 160.54 81.6689 160.233C80.865 158.387 78.7976 159.296 77.2832 160.172L76.475 161.319C76.1062 161.796 75.7959 162.323 75.5519 162.888C75.3967 163.348 75.2674 163.817 75.1649 164.294C74.9564 165.109 74.6501 165.886 74.3736 166.682C73.4566 169.33 72.9129 172.116 72.7614 174.945C72.0737 175.082 71.3761 175.151 70.6771 175.151H70.626V175.095C70.7026 174.776 70.7664 174.453 70.826 174.13C71.1426 172.307 71.1815 170.439 70.9408 168.603C70.9408 168.561 70.9408 168.523 70.9408 168.481C70.8855 168.074 70.8132 167.661 70.7834 167.254C70.643 167.535 70.5069 167.821 70.358 168.111C69.4435 169.985 68.4821 171.858 66.7551 172.678C66.0542 172.981 65.3155 173.164 64.5644 173.221C63.6371 173.276 62.7183 173.444 61.8249 173.722C61.5203 173.814 61.2448 173.997 61.0294 174.252C60.789 174.643 60.6507 175.1 60.6296 175.572C60.5374 176.196 60.395 176.809 60.2042 177.404C59.4231 179.626 58.2025 181.63 56.631 183.268L56.2354 183.69C55.5616 184.455 54.7581 185.068 53.8703 185.493C53.0636 185.792 52.2155 185.931 51.3648 185.905C51.7434 184.809 52.0539 184.055 52.0539 184.055C52.0539 184.055 53.296 179.718 55.3378 177.469C55.6185 177.15 55.9552 176.897 56.3274 176.726C56.6996 176.554 57.0996 176.468 57.503 176.472C59.0272 174.488 60.3482 172.325 61.4421 170.022C60.3967 168.46 59.6917 166.654 59.3816 164.744C59.0716 162.834 59.1649 160.871 59.6542 159.007C60.1436 157.143 61.0159 155.428 62.2036 153.995C63.3913 152.562 64.8626 151.449 66.5036 150.742C68.1446 150.035 69.9114 149.753 71.6671 149.919C73.4228 150.084 75.1203 150.692 76.6284 151.696C78.1365 152.699 79.4147 154.072 80.364 155.706C81.3132 157.341 81.9082 159.194 82.1028 161.123L82.0943 161.108Z" fill="black"/>
<path id="Vector_171" d="M82.826 151.239C82.1453 150.406 81.1882 149.919 80.2737 149.436C79.9481 149.3 79.6616 149.071 79.4442 148.771C79.2855 148.413 79.1984 148.022 79.1889 147.623C78.8699 145.178 76.8026 143.488 74.748 142.495C72.1021 141.216 68.9245 140.668 66.385 142.185C65.1514 142.925 64.1772 144.082 63.0627 145.024C61.6505 146.214 60.0255 147.047 58.5197 148.087C57.0138 149.127 55.576 150.429 54.8614 152.237C53.7554 155.001 54.5849 158.172 54.7253 161.188C54.9422 165.947 53.1854 170.917 49.6973 173.732C49.277 174.015 48.9031 174.375 48.5913 174.795C48.4388 175.007 48.3486 175.266 48.3326 175.536C48.3167 175.806 48.3757 176.075 48.502 176.308C48.6764 176.57 48.9656 176.72 49.157 176.964C49.5569 177.465 49.4761 178.228 49.3187 178.875C48.8148 180.963 47.8064 182.862 46.4006 184.369C46.4601 184.865 47.0046 185.057 47.4513 185.132C48.6327 185.326 49.8257 185.421 51.0202 185.418C51.9512 185.502 52.887 185.346 53.7533 184.961C54.6196 184.576 55.3923 183.974 56.0099 183.203C58.1368 181.001 59.9362 178.252 60.4169 175.085C60.4419 174.614 60.5799 174.158 60.8167 173.764C61.0352 173.514 61.3095 173.332 61.6122 173.235C63.1989 172.636 65.0152 172.931 66.5424 172.191C68.5331 171.254 69.52 168.912 70.5622 166.767C70.5963 167.174 70.6643 167.586 70.7239 167.999C71.0276 170.203 70.9263 172.452 70.4261 174.612C70.1411 175.835 69.7285 177.053 69.7582 178.313C69.7795 179.249 70.643 184.144 71.7788 182.678C72.9146 181.212 72.4977 177.971 72.4977 176.153C72.499 172.751 73.0656 169.378 74.1694 166.2C74.4417 165.408 74.7522 164.626 74.9607 163.811C75.0638 163.335 75.1916 162.866 75.3435 162.406C75.5905 161.841 75.9022 161.314 76.2708 160.837L77.0833 159.689C78.5977 158.804 80.665 157.905 81.469 159.75C81.7753 160.457 81.9412 161.24 82.7451 160.551C83.2173 160.144 83.3704 159.343 83.4938 158.734C84 156.181 84.4169 153.179 82.826 151.239Z" fill="#464353"/>
<path id="Vector_172" opacity="0.1" d="M67.4314 195.46C67.1209 186.809 56.1248 185.02 53.5597 193.203C53.5389 193.258 53.5218 193.314 53.5087 193.371C51.8284 198.913 52.5601 212.946 52.5601 212.946C52.5601 212.946 52.777 222.37 53.581 225.503C54.385 228.637 56.6438 237.63 56.6438 239.087C56.6438 240.543 58.7409 246.075 59.6214 246.478C60.502 246.881 60.9486 250.009 61.1655 250.572C61.3825 251.134 62.0163 258.445 62.0163 258.445C62.0163 258.445 70.2602 257.883 70.4048 256.436C70.5495 254.988 68.5799 247.92 68.5799 247.92C68.5799 247.92 67.1294 245.03 66.9422 242.703C66.7551 240.375 65.615 239.316 65.8405 237.709C66.0659 236.103 65.1811 235.302 65.1811 234.257C65.1811 233.213 64.5261 230.403 64.5261 230.403C64.5261 230.403 63.1393 229.194 63.3605 227.751C63.5817 226.309 61.391 223.414 61.9738 222.37C62.5565 221.325 62.7012 218.754 62.7012 218.754C62.7012 218.754 63.4328 207.189 63.9433 204.055C64.4537 200.922 67.4442 195.863 67.4442 195.863C67.4442 195.863 67.4399 195.718 67.4314 195.46Z" fill="black"/>
<path id="Vector_173" opacity="0.1" d="M67.0911 246.215C65.0833 248.557 62.2162 249.063 59.9532 248.923C59.6895 247.827 59.3066 246.478 58.7494 246.225C57.8646 245.822 55.7717 240.281 55.7717 238.838C55.7717 237.396 53.5129 228.393 52.709 225.255C51.905 222.117 51.688 212.702 51.688 212.702C51.688 212.702 50.9564 198.65 52.6367 193.123C52.6367 193.072 52.6664 193.015 52.6877 192.959C55.24 184.772 66.2488 186.566 66.5594 195.217C66.5594 195.474 66.5594 195.615 66.5594 195.615C66.5594 195.615 63.5817 200.674 63.0585 203.807C62.5353 206.941 61.8249 218.505 61.8249 218.505C61.8249 218.505 61.676 221.077 61.0932 222.121C60.5104 223.166 62.6969 226.061 62.48 227.503C62.263 228.946 63.6455 230.154 63.6455 230.154C63.6455 230.154 64.3006 232.965 64.3006 234.014C64.3006 235.063 65.1769 235.859 64.9599 237.466C64.743 239.073 65.9085 240.117 66.0957 242.445C66.252 243.75 66.5876 245.021 67.0911 246.215Z" fill="black"/>
<path id="Vector_174" d="M66.9933 195.222C66.6828 186.57 55.6866 184.781 53.1216 192.964L53.0705 193.128C51.3903 198.674 52.1219 212.707 52.1219 212.707C52.1219 212.707 52.3389 222.126 53.1429 225.26C53.9468 228.393 56.2056 237.391 56.2056 238.843C56.2056 240.295 58.3027 245.831 59.1833 246.234C60.0638 246.637 60.5105 249.771 60.7274 250.333C60.9444 250.895 61.5782 258.202 61.5782 258.202C61.5782 258.202 69.8221 257.64 69.9667 256.197C70.1113 254.754 68.1461 247.682 68.1461 247.682C68.1461 247.682 66.6913 244.787 66.5041 242.459C66.3169 240.131 65.1514 239.087 65.3726 237.48C65.5938 235.873 64.7132 235.068 64.7132 234.023C64.7132 232.979 64.0581 230.168 64.0581 230.168C64.0581 230.168 62.6714 228.965 62.8926 227.517C63.1138 226.07 60.9231 223.18 61.5059 222.135C62.0886 221.091 62.2333 218.524 62.2333 218.524C62.2333 218.524 62.9649 206.955 63.4754 203.821C63.9858 200.688 66.9763 195.629 66.9763 195.629C66.9763 195.629 67.0018 195.479 66.9933 195.222Z" fill="#FF748E"/>
<path id="Vector_175" opacity="0.1" d="M53.4534 217.47C53.6703 217.227 57.8305 212.168 59.1407 213.976C60.4509 215.784 53.4534 217.47 53.4534 217.47Z" fill="black"/>
<path id="Vector_176" opacity="0.1" d="M53.8362 221.386C53.9979 221.203 57.9922 221.025 58.9791 218.576C59.966 216.126 53.8362 221.386 53.8362 221.386Z" fill="black"/>
<g id="Group_9" opacity="0.1">
<path id="Vector_177" opacity="0.1" d="M49.2847 176.964C49.3829 177.091 49.4567 177.239 49.5016 177.399C49.582 177.126 49.6042 176.836 49.5666 176.552C49.529 176.267 49.4325 175.996 49.2847 175.76C49.089 175.512 48.804 175.366 48.6253 175.104C48.6253 175.104 48.604 175.062 48.5913 175.039C48.4926 175.234 48.4437 175.455 48.4497 175.678C48.4557 175.902 48.5164 176.119 48.6253 176.308C48.8252 176.57 49.089 176.72 49.2847 176.964Z" fill="black"/>
<path id="Vector_178" opacity="0.1" d="M54.8529 161.361C54.8529 160.893 54.8529 160.425 54.8529 159.994C54.7763 158.354 54.4998 156.673 54.4275 155.029C54.3382 157.043 54.7465 159.155 54.8529 161.197C54.8529 161.244 54.8486 161.296 54.8529 161.361Z" fill="black"/>
<path id="Vector_179" opacity="0.1" d="M71.9022 181.474C70.8898 182.781 70.0943 179.02 69.9199 177.535C69.8923 177.793 69.8795 178.053 69.8816 178.313C69.9071 179.249 70.7664 184.144 71.9022 182.678C72.6721 181.685 72.7529 179.994 72.7019 178.434C72.6466 179.629 72.4764 180.734 71.9022 181.474Z" fill="black"/>
<path id="Vector_180" opacity="0.1" d="M70.8472 167.999C70.9338 168.628 70.9863 169.263 71.0046 169.9C71.0416 168.86 70.9888 167.819 70.8472 166.79C70.7919 166.383 70.7196 165.97 70.6856 165.558C69.6349 167.722 68.6608 170.036 66.67 170.987C65.1258 171.722 63.3265 171.432 61.7398 172.031C61.4352 172.123 61.1598 172.306 60.9443 172.561C60.705 172.953 60.5669 173.41 60.5445 173.882C60.0596 177.048 58.2559 179.797 56.1333 181.999C55.5157 182.77 54.743 183.373 53.8767 183.757C53.0104 184.142 52.0745 184.298 51.1436 184.214C49.9506 184.215 48.7592 184.12 47.5789 183.929C47.3959 183.897 47.2162 183.846 47.0429 183.774C46.877 183.98 46.7026 184.177 46.5239 184.369C46.5835 184.865 47.1322 185.057 47.5789 185.132C48.7589 185.326 49.9505 185.421 51.1436 185.418C52.0745 185.502 53.0104 185.346 53.8767 184.961C54.743 184.576 55.5157 183.974 56.1333 183.203C58.2602 181.001 60.0596 178.252 60.5445 175.085C60.5675 174.613 60.7056 174.157 60.9443 173.764C61.1614 173.512 61.4362 173.33 61.7398 173.235C63.3265 172.636 65.1429 172.931 66.67 172.191C68.6608 171.254 69.6476 168.912 70.6856 166.767C70.7196 167.174 70.7919 167.586 70.8472 167.999Z" fill="black"/>
<path id="Vector_181" opacity="0.1" d="M83.6172 157.53C83.4938 158.139 83.3364 158.935 82.8642 159.347C82.0645 160.031 81.9029 159.254 81.5881 158.546C80.7841 156.701 78.7168 157.61 77.2024 158.485L76.3899 159.633C76.0211 160.109 75.7108 160.637 75.4669 161.202C75.3111 161.661 75.1832 162.13 75.084 162.607C74.8713 163.422 74.565 164.2 74.2885 164.991C73.1889 168.17 72.6239 171.543 72.6211 174.945C72.6211 175.099 72.6211 175.268 72.6211 175.441C72.6968 172.279 73.2592 169.155 74.2843 166.2C74.5608 165.408 74.8671 164.626 75.0798 163.811C75.1789 163.334 75.3068 162.864 75.4626 162.406C75.7065 161.841 76.0169 161.313 76.3857 160.837L77.1982 159.689C78.7125 158.804 80.7799 157.905 81.5838 159.75C81.8944 160.457 82.056 161.24 82.86 160.551C83.3322 160.144 83.4895 159.343 83.6129 158.734C83.9336 157.322 84.0768 155.869 84.0383 154.415C83.9701 155.464 83.8293 156.505 83.6172 157.53Z" fill="black"/>
</g>
<path id="Vector_182" d="M93.5668 203.133L93.7923 203.301C93.6914 203.228 93.6051 203.132 93.5385 203.021C93.4719 202.909 93.4263 202.785 93.4044 202.653C93.3826 202.522 93.385 202.388 93.4114 202.258C93.4378 202.127 93.4878 202.005 93.5583 201.896L103.699 185.718C103.766 185.61 103.852 185.518 103.951 185.447C104.051 185.375 104.162 185.327 104.279 185.303C104.396 185.28 104.515 185.282 104.631 185.31C104.747 185.337 104.857 185.39 104.954 185.465L104.729 185.292C105.045 185.532 105.262 185.901 105.331 186.317C105.4 186.734 105.317 187.163 105.099 187.512L95.5831 202.721C95.3646 203.068 95.0299 203.307 94.6521 203.384C94.2744 203.462 93.8842 203.371 93.5668 203.133Z" fill="#464353"/>
<path id="Vector_183" d="M104.838 185.353L105.009 185.483L93.8466 203.327L93.6749 203.197C93.5132 203.074 93.4024 202.886 93.3669 202.674C93.3313 202.461 93.3739 202.242 93.4852 202.064L103.806 185.566C103.917 185.388 104.088 185.266 104.281 185.226C104.474 185.187 104.674 185.234 104.835 185.357L104.838 185.353Z" fill="#9F9EFF"/>
<path id="Vector_184" d="M103.584 187.791L103.552 187.767C103.519 187.742 103.474 187.752 103.451 187.788L102.624 189.111C102.601 189.147 102.609 189.197 102.642 189.222L102.674 189.246C102.707 189.27 102.752 189.261 102.774 189.225L103.602 187.902C103.625 187.866 103.617 187.816 103.584 187.791Z" fill="#464353"/>
<path id="Vector_185" d="M318.781 130.087C318.784 131.688 318.356 133.253 317.551 134.586C316.746 135.919 315.599 136.958 314.257 137.574C312.915 138.189 311.438 138.352 310.011 138.042C308.585 137.732 307.275 136.963 306.246 135.832C305.217 134.702 304.515 133.26 304.23 131.691C303.945 130.121 304.09 128.494 304.645 127.014C305.201 125.535 306.143 124.271 307.351 123.381C308.56 122.491 309.981 122.016 311.434 122.016C313.38 122.016 315.246 122.866 316.623 124.379C318 125.892 318.776 127.945 318.781 130.087ZM310.583 134.368L316.037 128.368C316.124 128.27 316.173 128.138 316.173 128C316.173 127.863 316.124 127.731 316.037 127.632L315.365 126.892C315.321 126.844 315.269 126.805 315.212 126.778C315.155 126.752 315.093 126.738 315.031 126.738C314.969 126.738 314.907 126.752 314.85 126.778C314.792 126.805 314.74 126.844 314.697 126.892L310.252 131.787L308.176 129.511C308.086 129.414 307.965 129.36 307.84 129.36C307.714 129.36 307.593 129.414 307.504 129.511L306.836 130.251C306.791 130.299 306.756 130.356 306.732 130.419C306.708 130.482 306.696 130.55 306.696 130.618C306.696 130.687 306.708 130.755 306.732 130.818C306.756 130.881 306.791 130.938 306.836 130.986L309.916 134.377C309.959 134.426 310.011 134.465 310.068 134.491C310.126 134.518 310.187 134.532 310.25 134.532C310.312 134.532 310.373 134.518 310.431 134.491C310.488 134.465 310.54 134.426 310.583 134.377V134.368Z" fill="#3ACC6C"/>
<path id="Vector_186" d="M229.787 218.866C229.787 220.466 229.356 222.03 228.549 223.36C227.741 224.69 226.594 225.727 225.252 226.339C223.909 226.952 222.432 227.112 221.007 226.8C219.582 226.488 218.273 225.717 217.246 224.586C216.218 223.455 215.519 222.013 215.235 220.444C214.952 218.875 215.097 217.249 215.653 215.77C216.209 214.292 217.151 213.029 218.359 212.14C219.567 211.251 220.987 210.777 222.44 210.777C224.389 210.777 226.257 211.629 227.635 213.146C229.013 214.663 229.787 216.721 229.787 218.866ZM221.59 223.147L227.06 217.147C227.104 217.099 227.14 217.041 227.164 216.978C227.188 216.914 227.2 216.846 227.2 216.777C227.2 216.708 227.188 216.64 227.164 216.576C227.14 216.513 227.104 216.455 227.06 216.407L226.371 215.695C226.327 215.646 226.275 215.607 226.217 215.581C226.159 215.554 226.097 215.54 226.035 215.54C225.972 215.54 225.91 215.554 225.853 215.581C225.795 215.607 225.743 215.646 225.699 215.695L221.253 220.566L219.178 218.281C219.134 218.232 219.082 218.193 219.025 218.166C218.967 218.14 218.906 218.126 218.844 218.126C218.782 218.126 218.72 218.14 218.663 218.166C218.605 218.193 218.553 218.232 218.51 218.281L217.838 219.016C217.75 219.115 217.701 219.248 217.701 219.386C217.701 219.524 217.75 219.657 217.838 219.756L220.917 223.147C220.961 223.196 221.014 223.235 221.071 223.262C221.129 223.288 221.191 223.302 221.253 223.302C221.316 223.302 221.378 223.288 221.436 223.262C221.493 223.235 221.546 223.196 221.59 223.147Z" fill="#3ACC6C"/>
<path id="Vector_187" d="M229.787 310.233C229.787 311.833 229.356 313.397 228.549 314.727C227.741 316.057 226.594 317.094 225.252 317.706C223.909 318.319 222.432 318.479 221.007 318.167C219.582 317.855 218.273 317.084 217.246 315.953C216.218 314.822 215.519 313.38 215.235 311.811C214.952 310.242 215.097 308.616 215.653 307.137C216.209 305.659 217.151 304.396 218.359 303.507C219.567 302.618 220.987 302.144 222.44 302.144C224.389 302.144 226.257 302.996 227.635 304.513C229.013 306.03 229.787 308.088 229.787 310.233ZM221.59 314.514L227.06 308.514C227.104 308.466 227.14 308.408 227.164 308.345C227.188 308.281 227.2 308.213 227.2 308.144C227.2 308.075 227.188 308.007 227.164 307.944C227.14 307.88 227.104 307.822 227.06 307.774L226.392 307.039C226.348 306.99 226.296 306.951 226.238 306.924C226.18 306.898 226.119 306.884 226.056 306.884C225.994 306.884 225.932 306.898 225.874 306.924C225.816 306.951 225.764 306.99 225.72 307.039L221.275 311.933L219.199 309.648C219.155 309.599 219.103 309.56 219.046 309.533C218.989 309.507 218.927 309.493 218.865 309.493C218.803 309.493 218.741 309.507 218.684 309.533C218.627 309.56 218.575 309.599 218.531 309.648L217.859 310.383C217.771 310.482 217.722 310.615 217.722 310.753C217.722 310.891 217.771 311.024 217.859 311.123L220.939 314.514C220.983 314.563 221.035 314.602 221.093 314.629C221.15 314.655 221.212 314.669 221.275 314.669C221.337 314.669 221.399 314.655 221.457 314.629C221.515 314.602 221.567 314.563 221.611 314.514H221.59Z" fill="#3ACC6C"/>
</g>
</g>
<defs>
<linearGradient id="paint0_linear" x1="227.809" y1="328.433" x2="227.809" y2="-2" gradientUnits="userSpaceOnUse">
<stop stop-color="#808080" stop-opacity="0.25"/>
<stop offset="0.54" stop-color="#808080" stop-opacity="0.12"/>
<stop offset="1" stop-color="#808080" stop-opacity="0.1"/>
</linearGradient>
<linearGradient id="paint1_linear" x1="21151.9" y1="176176" x2="21151.9" y2="77438.1" gradientUnits="userSpaceOnUse">
<stop stop-color="#808080" stop-opacity="0.25"/>
<stop offset="0.54" stop-color="#808080" stop-opacity="0.12"/>
<stop offset="1" stop-color="#808080" stop-opacity="0.1"/>
</linearGradient>
<clipPath id="clip0">
<rect y="-2" width="432" height="367" fill="white"/>
</clipPath>
</defs>
</svg>
