<svg width="454" height="333" viewBox="0 0 454 333" fill="none" xmlns="http://www.w3.org/2000/svg">
<g id="undraw_profile_6l1l 1">
<g clip-path="url(#clip0)">
<path id="Vector" d="M0 332.776H73.0271" stroke="#6D4B87" stroke-miterlimit="10"/>
<path id="Vector_2" d="M422.591 57.3529H115.435C110.722 57.3529 106.901 61.2518 106.901 66.0612V272.664C106.901 277.473 110.722 281.372 115.435 281.372H422.591C427.303 281.372 431.124 277.473 431.124 272.664V66.0612C431.124 61.2518 427.303 57.3529 422.591 57.3529Z" fill="#F2F2F2"/>
<path id="Vector_3" d="M412.692 43.2114H105.536C100.823 43.2114 97.0029 47.1102 97.0029 51.9197V258.522C97.0029 263.332 100.823 267.231 105.536 267.231H412.692C417.405 267.231 421.226 263.332 421.226 258.522V51.9197C421.226 47.1102 417.405 43.2114 412.692 43.2114Z" stroke="#6D4B87" stroke-miterlimit="10"/>
<path id="Vector_4" d="M97.0029 64.6886H421.226" stroke="#6D4B87" stroke-miterlimit="10"/>
<path id="Vector_5" opacity="0.3" d="M376.093 115.041H293.909C292.186 115.041 290.789 116.467 290.789 118.225V125.774C290.789 127.533 292.186 128.958 293.909 128.958H376.093C377.816 128.958 379.213 127.533 379.213 125.774V118.225C379.213 116.467 377.816 115.041 376.093 115.041Z" fill="#DB5656"/>
<path id="Vector_6" opacity="0.3" d="M393.03 153.65H276.972C275.249 153.65 273.852 155.075 273.852 156.834V161.689C273.852 163.448 275.249 164.873 276.972 164.873H393.03C394.753 164.873 396.15 163.448 396.15 161.689V156.834C396.15 155.075 394.753 153.65 393.03 153.65Z" fill="#DB5656"/>
<path id="Vector_7" opacity="0.3" d="M393.03 184.177H276.972C275.249 184.177 273.852 185.603 273.852 187.362V192.217C273.852 193.975 275.249 195.401 276.972 195.401H393.03C394.753 195.401 396.15 193.975 396.15 192.217V187.362C396.15 185.603 394.753 184.177 393.03 184.177Z" fill="#DB5656"/>
<path id="Vector_8" opacity="0.3" d="M393.03 214.705H276.972C275.249 214.705 273.852 216.131 273.852 217.889V222.744C273.852 224.503 275.249 225.929 276.972 225.929H393.03C394.753 225.929 396.15 224.503 396.15 222.744V217.889C396.15 216.131 394.753 214.705 393.03 214.705Z" fill="#DB5656"/>
<path id="Vector_9" d="M380.492 110.552H298.308C296.585 110.552 295.188 111.977 295.188 113.736V121.285C295.188 123.043 296.585 124.469 298.308 124.469H380.492C382.215 124.469 383.612 123.043 383.612 121.285V113.736C383.612 111.977 382.215 110.552 380.492 110.552Z" stroke="#6D4B87" stroke-miterlimit="10"/>
<path id="Vector_10" d="M397.429 149.16H281.371C279.648 149.16 278.251 150.586 278.251 152.345V157.2C278.251 158.958 279.648 160.384 281.371 160.384H397.429C399.152 160.384 400.549 158.958 400.549 157.2V152.345C400.549 150.586 399.152 149.16 397.429 149.16Z" stroke="#6D4B87" stroke-miterlimit="10"/>
<path id="Vector_11" d="M397.429 179.688H281.371C279.648 179.688 278.251 181.114 278.251 182.872V187.727C278.251 189.486 279.648 190.912 281.371 190.912H397.429C399.152 190.912 400.549 189.486 400.549 187.727V182.872C400.549 181.114 399.152 179.688 397.429 179.688Z" stroke="#6D4B87" stroke-miterlimit="10"/>
<path id="Vector_12" d="M397.429 210.216H281.371C279.648 210.216 278.251 211.641 278.251 213.4V218.255C278.251 220.014 279.648 221.439 281.371 221.439H397.429C399.152 221.439 400.549 220.014 400.549 218.255V213.4C400.549 211.641 399.152 210.216 397.429 210.216Z" stroke="#6D4B87" stroke-miterlimit="10"/>
<path id="Vector_13" opacity="0.3" d="M121.639 63.4135C125.283 63.4135 128.237 60.3986 128.237 56.6795C128.237 52.9604 125.283 49.9454 121.639 49.9454C117.994 49.9454 115.04 52.9604 115.04 56.6795C115.04 60.3986 117.994 63.4135 121.639 63.4135Z" fill="#DB5656"/>
<path id="Vector_14" opacity="0.3" d="M140.115 63.4135C143.76 63.4135 146.714 60.3986 146.714 56.6795C146.714 52.9604 143.76 49.9454 140.115 49.9454C136.471 49.9454 133.516 52.9604 133.516 56.6795C133.516 60.3986 136.471 63.4135 140.115 63.4135Z" fill="#DB5656"/>
<path id="Vector_15" opacity="0.3" d="M158.592 63.4135C162.236 63.4135 165.191 60.3986 165.191 56.6795C165.191 52.9604 162.236 49.9454 158.592 49.9454C154.948 49.9454 151.993 52.9604 151.993 56.6795C151.993 60.3986 154.948 63.4135 158.592 63.4135Z" fill="#DB5656"/>
<path id="Vector_16" d="M124.278 60.7199C127.923 60.7199 130.877 57.705 130.877 53.9859C130.877 50.2668 127.923 47.2518 124.278 47.2518C120.634 47.2518 117.679 50.2668 117.679 53.9859C117.679 57.705 120.634 60.7199 124.278 60.7199Z" stroke="#6D4B87" stroke-miterlimit="10"/>
<path id="Vector_17" d="M142.755 60.7199C146.399 60.7199 149.354 57.705 149.354 53.9859C149.354 50.2668 146.399 47.2518 142.755 47.2518C139.11 47.2518 136.156 50.2668 136.156 53.9859C136.156 57.705 139.11 60.7199 142.755 60.7199Z" stroke="#6D4B87" stroke-miterlimit="10"/>
<path id="Vector_18" d="M161.232 60.7199C164.876 60.7199 167.83 57.705 167.83 53.9859C167.83 50.2668 164.876 47.2518 161.232 47.2518C157.587 47.2518 154.633 50.2668 154.633 53.9859C154.633 57.705 157.587 60.7199 161.232 60.7199Z" stroke="#6D4B87" stroke-miterlimit="10"/>
<g id="wishlst">
<path id="Vector_19" d="M197.203 256.373C196.098 251.179 195.805 244.085 196.177 239.151C196.177 239.151 190.591 214.107 186.195 211.77L186.194 211.771C186.127 211.86 183.993 214.713 183.723 223.544C183.448 232.515 180.336 238.403 180.336 238.403C180.336 238.403 181.343 249.585 180.767 256.372L197.203 256.373Z" fill="#DB5656"/>
<path id="Vector_20" d="M237.841 97H136.458C135.084 97 133.725 97.276 132.456 97.8124C131.187 98.3487 130.034 99.1348 129.063 100.126C128.092 101.117 127.322 102.293 126.796 103.588C126.27 104.883 126 106.271 126 107.672V245.701C126 247.102 126.27 248.49 126.796 249.785C127.322 251.079 128.092 252.256 129.063 253.247C130.034 254.238 131.187 255.024 132.456 255.56C133.725 256.096 135.084 256.373 136.458 256.373H172.028C170.84 251.345 169.363 243.492 170.859 238.032L170.858 238.029L170.859 238.031C170.929 237.776 171.003 237.525 171.086 237.281C172.113 233.738 172.456 230.024 172.094 226.348C172.755 223.206 172.755 219.958 172.094 216.816C170.995 211.583 170.226 206.443 170.226 206.443C170.226 206.443 169.62 199.529 170.149 195.29C170.161 195.197 170.175 195.108 170.187 195.018C170.001 194.975 169.896 194.95 169.896 194.95C169.896 194.95 171.453 187.754 172.002 183.175C172.132 182.094 172.303 180.724 172.487 179.263C171.98 179.177 171.481 179.048 170.995 178.877C166.05 177.101 164.493 161.028 164.493 161.028V155.935C164.493 155.935 162.845 148.132 168.614 144.674C174.169 141.345 176.387 140.434 176.544 140.371C176.586 140.34 176.628 140.312 176.671 140.278C177.299 139.775 177.796 139.122 178.118 138.377C178.126 138.249 178.128 138.121 178.124 137.995C178.03 136.169 176.784 134.509 175.603 133.06C174.595 131.824 173.587 130.588 172.579 129.353C172.233 128.985 171.968 128.546 171.8 128.067C171.736 127.802 171.709 127.529 171.718 127.257C171.717 127.156 171.718 127.055 171.72 126.955C171.736 126.033 171.76 125.112 171.793 124.191C171.821 123.387 172.02 122.371 172.792 122.206C173.194 122.12 173.725 122.27 173.937 121.912C174.009 121.764 174.027 121.596 173.989 121.436C173.986 121.448 173.986 121.46 173.982 121.472C173.98 121.457 173.977 121.442 173.974 121.427C173.816 120.782 173.72 120.122 173.688 119.458C173.68 119.158 173.722 118.859 173.812 118.573C174.26 117.238 175.8 116.69 177.161 116.438C178.522 116.186 180.049 115.969 180.904 114.859C181.132 114.49 181.38 114.134 181.647 113.793C182.039 113.429 182.52 113.182 183.039 113.076C184.729 112.64 186.513 112.801 188.101 113.535C188.76 113.841 189.421 114.254 190.143 114.207C190.893 114.159 191.534 113.62 192.274 113.489C193.471 113.277 194.614 114.192 195.204 115.275C195.578 115.964 195.765 116.742 195.746 117.53C195.76 118.314 195.483 119.075 194.97 119.658C194.455 120.216 193.687 120.599 193.473 121.333C193.386 121.632 193.406 121.953 193.33 122.255C193.32 122.293 193.304 122.328 193.292 122.365C193.306 122.383 193.321 122.401 193.335 122.42C194.236 123.631 194.839 125.044 195.096 126.541C195.352 128.039 195.253 129.577 194.809 131.028C194.364 132.479 193.585 133.8 192.538 134.881C191.491 135.962 190.206 136.772 188.79 137.243C188.786 137.338 188.783 137.432 188.783 137.528C188.757 138.117 188.855 138.705 189.07 139.252C189.286 139.799 189.614 140.293 190.032 140.699L198.192 144.114C198.192 144.114 203.104 143.506 204.876 150.987C205.16 152.23 205.263 153.51 205.18 154.784C205.115 155.912 205.266 157.897 206.525 160.467C208.539 164.579 208.081 174.017 203.961 174.952C200.058 175.837 198.539 175.465 198.39 175.423L198.381 175.588C198.445 177.359 199.063 192.634 201.305 194.482C201.925 194.993 201.807 195.339 201.298 195.571L201.299 195.573C201.299 195.573 201.303 195.671 201.313 195.848C201.38 196.965 201.726 201.219 203.228 203.64C204.968 206.443 204.785 222.611 204.785 222.611L205.975 232.142C205.975 232.142 205.243 238.03 205.975 239.057C206.391 239.64 206.895 248.666 207.253 256.372H237.841C240.614 256.372 243.274 255.248 245.235 253.247C247.197 251.245 248.298 248.531 248.298 245.701V107.672C248.298 106.271 248.028 104.883 247.502 103.588C246.977 102.293 246.207 101.117 245.235 100.126C244.264 99.1348 243.112 98.3487 241.843 97.8124C240.574 97.276 239.214 97 237.841 97V97Z" fill="#DB5656"/>
</g>
<path id="Vector_21" d="M229.52 86.3093H128.137C122.361 86.3093 117.679 91.0873 117.679 96.9813V235.01C117.679 240.904 122.361 245.682 128.137 245.682H229.52C235.296 245.682 239.978 240.904 239.978 235.01V96.9813C239.978 91.0873 235.296 86.3093 229.52 86.3093Z" stroke="#6D4B87" stroke-miterlimit="10"/>
<path id="Vector_22" d="M44.3548 144.392C44.3548 144.392 40.2529 143.154 39.3731 144.501C38.4932 145.848 40.5726 155.611 40.5726 155.611L49.6112 156.172L46.4568 148.043L44.3548 144.392Z" fill="#2F2E41"/>
<path id="Vector_23" d="M12.7332 224.567C12.7332 224.567 20.9574 242.993 14.6238 242.414C8.29025 241.835 5.83244 224.567 5.83244 224.567H12.7332Z" fill="#A0616A"/>
<path id="Vector_24" d="M66.5212 222.648C66.5212 222.648 62.9133 242.557 68.9211 240.431C74.9289 238.304 73.2167 220.943 73.2167 220.943L66.5212 222.648Z" fill="#A0616A"/>
<path id="Vector_25" d="M42.605 139.772C42.605 139.772 42.5105 149.033 46.0081 149.515C49.5058 149.998 44.023 154.917 44.023 154.917L37.7839 156.172L28.8035 155.496L24.8332 150.287C24.8332 150.287 31.8285 146.911 28.8035 136.396L42.605 139.772Z" fill="#A0616A"/>
<path id="Vector_26" opacity="0.1" d="M42.605 139.772C42.605 139.772 42.5105 149.033 46.0081 149.515C49.5058 149.998 44.023 154.917 44.023 154.917L37.7839 156.172L28.8035 155.496L24.8332 150.287C24.8332 150.287 31.8285 146.911 28.8035 136.396L42.605 139.772Z" fill="black"/>
<path id="Vector_27" d="M58.6753 218.104C58.6753 218.104 63.1183 227.847 59.6206 258.428C59.6206 258.428 60.6605 269.232 59.8097 271.258C58.9589 273.284 51.9636 300.777 51.9636 300.777C51.9636 300.777 42.9831 302.803 41.7542 296.725C41.7542 296.725 42.9831 288.043 42.8886 286.693C42.7941 285.342 44.8738 270.583 44.8738 270.583L40.6199 242.028L37.4058 267.785C37.4058 267.785 37.4058 275.213 36.366 276.853C35.3261 278.493 36.366 311.485 36.366 311.485C36.366 311.485 39.2964 316.501 34.8534 316.598C30.4105 316.694 26.4402 316.501 26.062 313.318C25.6839 310.135 25.4949 306.951 24.5495 305.022C23.6042 303.092 22.3753 281.001 22.6589 273.284C22.9425 265.566 16.4199 225.918 18.4996 221.77C20.5792 217.622 58.6753 218.104 58.6753 218.104Z" fill="#2F2E41"/>
<path id="Vector_28" d="M37.7839 143.245C44.0489 143.245 49.1277 138.062 49.1277 131.669C49.1277 125.275 44.0489 120.092 37.7839 120.092C31.519 120.092 26.4402 125.275 26.4402 131.669C26.4402 138.062 31.519 143.245 37.7839 143.245Z" fill="#C08F96"/>
<path id="Vector_29" d="M26.4402 150.48C26.4402 150.48 33.341 155.689 43.3613 151.541C43.3613 151.541 46.6699 149.901 46.3863 147.393C46.1027 144.885 53.287 167.555 53.287 167.555L60.5659 207.01L60.1878 223.12C60.1878 223.12 56.9737 221.48 46.9535 225.146C36.9332 228.812 20.5793 220.998 20.5793 220.998L21.1465 179.613L21.7137 155.496L23.2261 150.191C23.2261 150.191 23.9824 148.743 26.4402 150.48Z" fill="#DB5656"/>
<path id="Vector_30" d="M42.9203 144.004C42.9203 144.004 44.5902 143.727 46.1972 146.332C47.8042 148.936 51.5855 150.576 51.5855 150.576C51.5855 150.576 60.755 151.155 62.0784 156.172C63.4019 161.188 66.7104 168.037 68.3175 180.674C69.9245 193.312 73.1385 213.474 73.6112 215.114C74.0839 216.754 72.9495 221.77 74.2729 223.313C75.5964 224.857 64.9143 224.857 64.9143 224.857C64.9143 224.857 63.969 216.946 63.3073 216.946C62.6456 216.946 62.8347 222.252 63.4964 226.111C64.1581 229.97 58.6753 226.111 58.6753 226.111C58.6753 226.111 54.4214 208.457 50.3565 192.54C46.2917 176.623 43.9285 167.844 44.6847 164.275C45.4409 160.706 47.5206 150.48 46.0081 149.515C44.4956 148.551 42.9203 144.004 42.9203 144.004Z" fill="black"/>
<path id="Vector_31" d="M29.2881 143.995C29.2881 143.995 26.8183 145.367 20.5793 149.901C14.3402 154.435 10.0863 157.908 10.0863 157.908C10.0863 157.908 7.62852 159.837 6.11603 171.317C4.60353 182.797 1.2004 212.509 2.52384 216.271C3.84729 220.033 4.31994 222.252 3.84728 224.471C3.37462 226.69 13.773 226.593 13.9621 226.111C14.1512 225.629 13.6785 216.85 14.1512 216.657C14.6238 216.464 17.1762 221.866 17.6488 226.4C18.1215 230.934 23.6043 234.504 24.8332 234.504C26.0621 234.504 32.3957 208.361 32.4902 190.514C32.5847 172.668 30.4105 157.619 28.8035 155.496C27.1965 153.374 29.2881 143.995 29.2881 143.995Z" fill="#2F2E41"/>
<path id="Vector_32" d="M45.9136 301.645C45.9136 301.645 46.6698 299.523 49.3167 300.198C51.9636 300.874 53.7597 298.462 53.7597 298.462C53.7597 298.462 55.1776 298.269 54.2323 300.102C53.287 301.935 52.5308 303.189 52.5308 303.189C52.5308 303.189 58.2026 316.405 54.5159 319.588C50.8292 322.772 46.5753 320.843 46.5753 320.843C46.5753 320.843 42.416 317.852 42.605 309.942C42.605 309.942 42.416 307.433 40.1472 303.382C37.8785 299.33 36.1769 293.156 38.9183 291.999C41.6597 290.841 42.3653 290.798 42.3653 290.798C42.3653 290.798 41.0825 296.785 44.3961 298.878L45.9136 301.645Z" fill="#6D4B87"/>
<path id="Vector_33" d="M28.3308 316.598C28.3308 316.598 26.0621 312.257 29.8433 311.775C33.6246 311.292 37.6894 311.003 37.5003 313.029C37.3113 315.054 36.8386 318.141 36.8386 318.141L37.5003 320.36C37.5003 320.36 37.6894 325.859 38.3511 326.534C39.0128 327.209 42.605 332.998 34.948 332.998C27.291 332.998 25.0222 332.129 25.684 330.296C26.3457 328.463 26.5347 319.395 26.5347 319.395L28.3308 316.598Z" fill="#6D4B87"/>
<path id="Vector_34" d="M34.1917 122.408C34.1917 122.408 39.4855 123.855 42.2269 124.434C44.9683 125.012 44.6847 123.372 44.6847 123.372C44.6847 123.372 48.2769 123.855 48.0878 123.469C47.8987 123.083 49.6003 121.057 47.6152 118.742C45.63 116.427 46.1972 114.69 46.1972 114.69H44.4956L44.023 114.015H41.3761C41.3761 114.015 39.3909 113.243 34.1917 114.015C28.9925 114.787 21.9027 114.98 21.3355 118.163C20.7683 121.347 17.8378 125.302 18.8777 127.135C19.9175 128.968 25.873 136.492 26.4402 139.675C27.0074 142.859 29.6557 143.566 29.5604 141.573C29.4652 139.579 26.8183 132.633 29.087 132.344C31.3558 132.055 35.2316 126.17 34.1917 122.408Z" fill="#2F2E41"/>
</g>
</g>
<defs>
<clipPath id="clip0">
<rect width="454" height="333" fill="white"/>
</clipPath>
</defs>
</svg>
